<?xml version="1.0" encoding="utf-8" standalone="no"?>
<!DOCTYPE svg PUBLIC "-//W3C//DTD SVG 1.1//EN"
  "http://www.w3.org/Graphics/SVG/1.1/DTD/svg11.dtd">
<svg xmlns:xlink="http://www.w3.org/1999/xlink" width="1152pt" height="576pt" viewBox="0 0 1152 576" xmlns="http://www.w3.org/2000/svg" version="1.1">
 <metadata>
  <rdf:RDF xmlns:dc="http://purl.org/dc/elements/1.1/" xmlns:cc="http://creativecommons.org/ns#" xmlns:rdf="http://www.w3.org/1999/02/22-rdf-syntax-ns#">
   <cc:Work>
    <dc:type rdf:resource="http://purl.org/dc/dcmitype/StillImage"/>
    <dc:date>2026-06-18T16:48:59.277483</dc:date>
    <dc:format>image/svg+xml</dc:format>
    <dc:creator>
     <cc:Agent>
      <dc:title>Matplotlib v3.11.0, https://matplotlib.org/</dc:title>
     </cc:Agent>
    </dc:creator>
   </cc:Work>
  </rdf:RDF>
 </metadata>
 <defs>
  <style type="text/css">*{stroke-linejoin: round; stroke-linecap: butt}</style>
 </defs>
 <g id="figure_1">
  <g id="patch_1">
   <path d="M 0 576 
L 1152 576 
L 1152 0 
L 0 0 
z
" style="fill: #ffffff"/>
  </g>
  <g id="axes_1">
   <g id="patch_2">
    <path d="M 53.102812 483.432189 
L 1139.04 483.432189 
L 1139.04 28.32 
L 53.102812 28.32 
z
" style="fill: #ffffff"/>
   </g>
   <g id="matplotlib.axis_1">
    <g id="xtick_1">
     <g id="line2d_1">
      <path d="M 102.463594 483.432189 
L 102.463594 28.32 
" clip-path="url(#p4544deca4b)" style="fill: none; stroke: #cccccc; stroke-linecap: round"/>
     </g>
     <g id="text_1">
      <!-- &lt;1 year -->
      <g style="fill: #262626" transform="translate(69.30244 530.134347) rotate(-45) scale(0.11 -0.11)">
       <defs>
        <path id="DejaVuSans-1f" d="M 4684 3150 
L 1459 2003 
L 4684 863 
L 4684 294 
L 678 1747 
L 678 2266 
L 4684 3719 
L 4684 3150 
z
" transform="scale(0.015625)"/>
        <path id="DejaVuSans-14" d="M 794 531 
L 1825 531 
L 1825 4091 
L 703 3866 
L 703 4441 
L 1819 4666 
L 2450 4666 
L 2450 531 
L 3481 531 
L 3481 0 
L 794 0 
L 794 531 
z
" transform="scale(0.015625)"/>
        <path id="DejaVuSans-3" transform="scale(0.015625)"/>
        <path id="DejaVuSans-5c" d="M 2059 -325 
Q 1816 -950 1584 -1140 
Q 1353 -1331 966 -1331 
L 506 -1331 
L 506 -850 
L 844 -850 
Q 1081 -850 1212 -737 
Q 1344 -625 1503 -206 
L 1606 56 
L 191 3500 
L 800 3500 
L 1894 763 
L 2988 3500 
L 3597 3500 
L 2059 -325 
z
" transform="scale(0.015625)"/>
        <path id="DejaVuSans-48" d="M 3597 1894 
L 3597 1613 
L 953 1613 
Q 991 1019 1311 708 
Q 1631 397 2203 397 
Q 2534 397 2845 478 
Q 3156 559 3463 722 
L 3463 178 
Q 3153 47 2828 -22 
Q 2503 -91 2169 -91 
Q 1331 -91 842 396 
Q 353 884 353 1716 
Q 353 2575 817 3079 
Q 1281 3584 2069 3584 
Q 2775 3584 3186 3129 
Q 3597 2675 3597 1894 
z
M 3022 2063 
Q 3016 2534 2758 2815 
Q 2500 3097 2075 3097 
Q 1594 3097 1305 2825 
Q 1016 2553 972 2059 
L 3022 2063 
z
" transform="scale(0.015625)"/>
        <path id="DejaVuSans-44" d="M 2194 1759 
Q 1497 1759 1228 1600 
Q 959 1441 959 1056 
Q 959 750 1161 570 
Q 1363 391 1709 391 
Q 2188 391 2477 730 
Q 2766 1069 2766 1631 
L 2766 1759 
L 2194 1759 
z
M 3341 1997 
L 3341 0 
L 2766 0 
L 2766 531 
Q 2569 213 2275 61 
Q 1981 -91 1556 -91 
Q 1019 -91 701 211 
Q 384 513 384 1019 
Q 384 1609 779 1909 
Q 1175 2209 1959 2209 
L 2766 2209 
L 2766 2266 
Q 2766 2663 2505 2880 
Q 2244 3097 1772 3097 
Q 1472 3097 1187 3025 
Q 903 2953 641 2809 
L 641 3341 
Q 956 3463 1253 3523 
Q 1550 3584 1831 3584 
Q 2591 3584 2966 3190 
Q 3341 2797 3341 1997 
z
" transform="scale(0.015625)"/>
        <path id="DejaVuSans-55" d="M 2631 2963 
Q 2534 3019 2420 3045 
Q 2306 3072 2169 3072 
Q 1681 3072 1420 2755 
Q 1159 2438 1159 1844 
L 1159 0 
L 581 0 
L 581 3500 
L 1159 3500 
L 1159 2956 
Q 1341 3275 1631 3429 
Q 1922 3584 2338 3584 
Q 2397 3584 2469 3576 
Q 2541 3569 2628 3553 
L 2631 2963 
z
" transform="scale(0.015625)"/>
       </defs>
       <use xlink:href="#DejaVuSans-1f"/>
       <use xlink:href="#DejaVuSans-14" transform="translate(83.796875 0)"/>
       <use xlink:href="#DejaVuSans-3" transform="translate(147.421875 0)"/>
       <use xlink:href="#DejaVuSans-5c" transform="translate(179.203125 0)"/>
       <use xlink:href="#DejaVuSans-48" transform="translate(238.390625 0)"/>
       <use xlink:href="#DejaVuSans-44" transform="translate(299.921875 0)"/>
       <use xlink:href="#DejaVuSans-55" transform="translate(361.203125 0)"/>
      </g>
     </g>
    </g>
    <g id="xtick_2">
     <g id="line2d_2">
      <path d="M 154.422311 483.432189 
L 154.422311 28.32 
" clip-path="url(#p4544deca4b)" style="fill: none; stroke: #cccccc; stroke-linecap: round"/>
     </g>
     <g id="text_2">
      <!-- 1-4 years -->
      <g style="fill: #262626" transform="translate(115.971999 535.423506) rotate(-45) scale(0.11 -0.11)">
       <defs>
        <path id="DejaVuSans-10" d="M 313 2009 
L 1997 2009 
L 1997 1497 
L 313 1497 
L 313 2009 
z
" transform="scale(0.015625)"/>
        <path id="DejaVuSans-17" d="M 2419 4116 
L 825 1625 
L 2419 1625 
L 2419 4116 
z
M 2253 4666 
L 3047 4666 
L 3047 1625 
L 3713 1625 
L 3713 1100 
L 3047 1100 
L 3047 0 
L 2419 0 
L 2419 1100 
L 313 1100 
L 313 1709 
L 2253 4666 
z
" transform="scale(0.015625)"/>
        <path id="DejaVuSans-56" d="M 2834 3397 
L 2834 2853 
Q 2591 2978 2328 3040 
Q 2066 3103 1784 3103 
Q 1356 3103 1142 2972 
Q 928 2841 928 2578 
Q 928 2378 1081 2264 
Q 1234 2150 1697 2047 
L 1894 2003 
Q 2506 1872 2764 1633 
Q 3022 1394 3022 966 
Q 3022 478 2636 193 
Q 2250 -91 1575 -91 
Q 1294 -91 989 -36 
Q 684 19 347 128 
L 347 722 
Q 666 556 975 473 
Q 1284 391 1588 391 
Q 1994 391 2212 530 
Q 2431 669 2431 922 
Q 2431 1156 2273 1281 
Q 2116 1406 1581 1522 
L 1381 1569 
Q 847 1681 609 1914 
Q 372 2147 372 2553 
Q 372 3047 722 3315 
Q 1072 3584 1716 3584 
Q 2034 3584 2315 3537 
Q 2597 3491 2834 3397 
z
" transform="scale(0.015625)"/>
       </defs>
       <use xlink:href="#DejaVuSans-14"/>
       <use xlink:href="#DejaVuSans-10" transform="translate(63.625 0)"/>
       <use xlink:href="#DejaVuSans-17" transform="translate(99.703125 0)"/>
       <use xlink:href="#DejaVuSans-3" transform="translate(163.328125 0)"/>
       <use xlink:href="#DejaVuSans-5c" transform="translate(195.109375 0)"/>
       <use xlink:href="#DejaVuSans-48" transform="translate(254.296875 0)"/>
       <use xlink:href="#DejaVuSans-44" transform="translate(315.828125 0)"/>
       <use xlink:href="#DejaVuSans-55" transform="translate(377.109375 0)"/>
       <use xlink:href="#DejaVuSans-56" transform="translate(418.21875 0)"/>
      </g>
     </g>
    </g>
    <g id="xtick_3">
     <g id="line2d_3">
      <path d="M 206.381028 483.432189 
L 206.381028 28.32 
" clip-path="url(#p4544deca4b)" style="fill: none; stroke: #cccccc; stroke-linecap: round"/>
     </g>
     <g id="text_3">
      <!-- 5-9 years -->
      <g style="fill: #262626" transform="translate(167.930716 535.423506) rotate(-45) scale(0.11 -0.11)">
       <defs>
        <path id="DejaVuSans-18" d="M 691 4666 
L 3169 4666 
L 3169 4134 
L 1269 4134 
L 1269 2991 
Q 1406 3038 1543 3061 
Q 1681 3084 1819 3084 
Q 2600 3084 3056 2656 
Q 3513 2228 3513 1497 
Q 3513 744 3044 326 
Q 2575 -91 1722 -91 
Q 1428 -91 1123 -41 
Q 819 9 494 109 
L 494 744 
Q 775 591 1075 516 
Q 1375 441 1709 441 
Q 2250 441 2565 725 
Q 2881 1009 2881 1497 
Q 2881 1984 2565 2268 
Q 2250 2553 1709 2553 
Q 1456 2553 1204 2497 
Q 953 2441 691 2322 
L 691 4666 
z
" transform="scale(0.015625)"/>
        <path id="DejaVuSans-1c" d="M 703 97 
L 703 672 
Q 941 559 1184 500 
Q 1428 441 1663 441 
Q 2288 441 2617 861 
Q 2947 1281 2994 2138 
Q 2813 1869 2534 1725 
Q 2256 1581 1919 1581 
Q 1219 1581 811 2004 
Q 403 2428 403 3163 
Q 403 3881 828 4315 
Q 1253 4750 1959 4750 
Q 2769 4750 3195 4129 
Q 3622 3509 3622 2328 
Q 3622 1225 3098 567 
Q 2575 -91 1691 -91 
Q 1453 -91 1209 -44 
Q 966 3 703 97 
z
M 1959 2075 
Q 2384 2075 2632 2365 
Q 2881 2656 2881 3163 
Q 2881 3666 2632 3958 
Q 2384 4250 1959 4250 
Q 1534 4250 1286 3958 
Q 1038 3666 1038 3163 
Q 1038 2656 1286 2365 
Q 1534 2075 1959 2075 
z
" transform="scale(0.015625)"/>
       </defs>
       <use xlink:href="#DejaVuSans-18"/>
       <use xlink:href="#DejaVuSans-10" transform="translate(63.625 0)"/>
       <use xlink:href="#DejaVuSans-1c" transform="translate(99.703125 0)"/>
       <use xlink:href="#DejaVuSans-3" transform="translate(163.328125 0)"/>
       <use xlink:href="#DejaVuSans-5c" transform="translate(195.109375 0)"/>
       <use xlink:href="#DejaVuSans-48" transform="translate(254.296875 0)"/>
       <use xlink:href="#DejaVuSans-44" transform="translate(315.828125 0)"/>
       <use xlink:href="#DejaVuSans-55" transform="translate(377.109375 0)"/>
       <use xlink:href="#DejaVuSans-56" transform="translate(418.21875 0)"/>
      </g>
     </g>
    </g>
    <g id="xtick_4">
     <g id="line2d_4">
      <path d="M 258.339745 483.432189 
L 258.339745 28.32 
" clip-path="url(#p4544deca4b)" style="fill: none; stroke: #cccccc; stroke-linecap: round"/>
     </g>
     <g id="text_4">
      <!-- 10-14 years -->
      <g style="fill: #262626" transform="translate(209.991706 545.321233) rotate(-45) scale(0.11 -0.11)">
       <defs>
        <path id="DejaVuSans-13" d="M 2034 4250 
Q 1547 4250 1301 3770 
Q 1056 3291 1056 2328 
Q 1056 1369 1301 889 
Q 1547 409 2034 409 
Q 2525 409 2770 889 
Q 3016 1369 3016 2328 
Q 3016 3291 2770 3770 
Q 2525 4250 2034 4250 
z
M 2034 4750 
Q 2819 4750 3233 4129 
Q 3647 3509 3647 2328 
Q 3647 1150 3233 529 
Q 2819 -91 2034 -91 
Q 1250 -91 836 529 
Q 422 1150 422 2328 
Q 422 3509 836 4129 
Q 1250 4750 2034 4750 
z
" transform="scale(0.015625)"/>
       </defs>
       <use xlink:href="#DejaVuSans-14"/>
       <use xlink:href="#DejaVuSans-13" transform="translate(63.625 0)"/>
       <use xlink:href="#DejaVuSans-10" transform="translate(127.25 0)"/>
       <use xlink:href="#DejaVuSans-14" transform="translate(163.328125 0)"/>
       <use xlink:href="#DejaVuSans-17" transform="translate(226.953125 0)"/>
       <use xlink:href="#DejaVuSans-3" transform="translate(290.578125 0)"/>
       <use xlink:href="#DejaVuSans-5c" transform="translate(322.359375 0)"/>
       <use xlink:href="#DejaVuSans-48" transform="translate(381.546875 0)"/>
       <use xlink:href="#DejaVuSans-44" transform="translate(443.078125 0)"/>
       <use xlink:href="#DejaVuSans-55" transform="translate(504.359375 0)"/>
       <use xlink:href="#DejaVuSans-56" transform="translate(545.46875 0)"/>
      </g>
     </g>
    </g>
    <g id="xtick_5">
     <g id="line2d_5">
      <path d="M 310.298462 483.432189 
L 310.298462 28.32 
" clip-path="url(#p4544deca4b)" style="fill: none; stroke: #cccccc; stroke-linecap: round"/>
     </g>
     <g id="text_5">
      <!-- 15-17 years -->
      <g style="fill: #262626" transform="translate(261.950423 545.321233) rotate(-45) scale(0.11 -0.11)">
       <defs>
        <path id="DejaVuSans-1a" d="M 525 4666 
L 3525 4666 
L 3525 4397 
L 1831 0 
L 1172 0 
L 2766 4134 
L 525 4134 
L 525 4666 
z
" transform="scale(0.015625)"/>
       </defs>
       <use xlink:href="#DejaVuSans-14"/>
       <use xlink:href="#DejaVuSans-18" transform="translate(63.625 0)"/>
       <use xlink:href="#DejaVuSans-10" transform="translate(127.25 0)"/>
       <use xlink:href="#DejaVuSans-14" transform="translate(163.328125 0)"/>
       <use xlink:href="#DejaVuSans-1a" transform="translate(226.953125 0)"/>
       <use xlink:href="#DejaVuSans-3" transform="translate(290.578125 0)"/>
       <use xlink:href="#DejaVuSans-5c" transform="translate(322.359375 0)"/>
       <use xlink:href="#DejaVuSans-48" transform="translate(381.546875 0)"/>
       <use xlink:href="#DejaVuSans-44" transform="translate(443.078125 0)"/>
       <use xlink:href="#DejaVuSans-55" transform="translate(504.359375 0)"/>
       <use xlink:href="#DejaVuSans-56" transform="translate(545.46875 0)"/>
      </g>
     </g>
    </g>
    <g id="xtick_6">
     <g id="line2d_6">
      <path d="M 362.257179 483.432189 
L 362.257179 28.32 
" clip-path="url(#p4544deca4b)" style="fill: none; stroke: #cccccc; stroke-linecap: round"/>
     </g>
     <g id="text_6">
      <!-- 18-19 years -->
      <g style="fill: #262626" transform="translate(313.90914 545.321233) rotate(-45) scale(0.11 -0.11)">
       <defs>
        <path id="DejaVuSans-1b" d="M 2034 2216 
Q 1584 2216 1326 1975 
Q 1069 1734 1069 1313 
Q 1069 891 1326 650 
Q 1584 409 2034 409 
Q 2484 409 2743 651 
Q 3003 894 3003 1313 
Q 3003 1734 2745 1975 
Q 2488 2216 2034 2216 
z
M 1403 2484 
Q 997 2584 770 2862 
Q 544 3141 544 3541 
Q 544 4100 942 4425 
Q 1341 4750 2034 4750 
Q 2731 4750 3128 4425 
Q 3525 4100 3525 3541 
Q 3525 3141 3298 2862 
Q 3072 2584 2669 2484 
Q 3125 2378 3379 2068 
Q 3634 1759 3634 1313 
Q 3634 634 3220 271 
Q 2806 -91 2034 -91 
Q 1263 -91 848 271 
Q 434 634 434 1313 
Q 434 1759 690 2068 
Q 947 2378 1403 2484 
z
M 1172 3481 
Q 1172 3119 1398 2916 
Q 1625 2713 2034 2713 
Q 2441 2713 2670 2916 
Q 2900 3119 2900 3481 
Q 2900 3844 2670 4047 
Q 2441 4250 2034 4250 
Q 1625 4250 1398 4047 
Q 1172 3844 1172 3481 
z
" transform="scale(0.015625)"/>
       </defs>
       <use xlink:href="#DejaVuSans-14"/>
       <use xlink:href="#DejaVuSans-1b" transform="translate(63.625 0)"/>
       <use xlink:href="#DejaVuSans-10" transform="translate(127.25 0)"/>
       <use xlink:href="#DejaVuSans-14" transform="translate(163.328125 0)"/>
       <use xlink:href="#DejaVuSans-1c" transform="translate(226.953125 0)"/>
       <use xlink:href="#DejaVuSans-3" transform="translate(290.578125 0)"/>
       <use xlink:href="#DejaVuSans-5c" transform="translate(322.359375 0)"/>
       <use xlink:href="#DejaVuSans-48" transform="translate(381.546875 0)"/>
       <use xlink:href="#DejaVuSans-44" transform="translate(443.078125 0)"/>
       <use xlink:href="#DejaVuSans-55" transform="translate(504.359375 0)"/>
       <use xlink:href="#DejaVuSans-56" transform="translate(545.46875 0)"/>
      </g>
     </g>
    </g>
    <g id="xtick_7">
     <g id="line2d_7">
      <path d="M 414.215896 483.432189 
L 414.215896 28.32 
" clip-path="url(#p4544deca4b)" style="fill: none; stroke: #cccccc; stroke-linecap: round"/>
     </g>
     <g id="text_7">
      <!-- 20-24 years -->
      <g style="fill: #262626" transform="translate(365.867857 545.321233) rotate(-45) scale(0.11 -0.11)">
       <defs>
        <path id="DejaVuSans-15" d="M 1228 531 
L 3431 531 
L 3431 0 
L 469 0 
L 469 531 
Q 828 903 1448 1529 
Q 2069 2156 2228 2338 
Q 2531 2678 2651 2914 
Q 2772 3150 2772 3378 
Q 2772 3750 2511 3984 
Q 2250 4219 1831 4219 
Q 1534 4219 1204 4116 
Q 875 4013 500 3803 
L 500 4441 
Q 881 4594 1212 4672 
Q 1544 4750 1819 4750 
Q 2544 4750 2975 4387 
Q 3406 4025 3406 3419 
Q 3406 3131 3298 2873 
Q 3191 2616 2906 2266 
Q 2828 2175 2409 1742 
Q 1991 1309 1228 531 
z
" transform="scale(0.015625)"/>
       </defs>
       <use xlink:href="#DejaVuSans-15"/>
       <use xlink:href="#DejaVuSans-13" transform="translate(63.625 0)"/>
       <use xlink:href="#DejaVuSans-10" transform="translate(127.25 0)"/>
       <use xlink:href="#DejaVuSans-15" transform="translate(163.328125 0)"/>
       <use xlink:href="#DejaVuSans-17" transform="translate(226.953125 0)"/>
       <use xlink:href="#DejaVuSans-3" transform="translate(290.578125 0)"/>
       <use xlink:href="#DejaVuSans-5c" transform="translate(322.359375 0)"/>
       <use xlink:href="#DejaVuSans-48" transform="translate(381.546875 0)"/>
       <use xlink:href="#DejaVuSans-44" transform="translate(443.078125 0)"/>
       <use xlink:href="#DejaVuSans-55" transform="translate(504.359375 0)"/>
       <use xlink:href="#DejaVuSans-56" transform="translate(545.46875 0)"/>
      </g>
     </g>
    </g>
    <g id="xtick_8">
     <g id="line2d_8">
      <path d="M 466.174613 483.432189 
L 466.174613 28.32 
" clip-path="url(#p4544deca4b)" style="fill: none; stroke: #cccccc; stroke-linecap: round"/>
     </g>
     <g id="text_8">
      <!-- 25-29 years -->
      <g style="fill: #262626" transform="translate(417.826574 545.321233) rotate(-45) scale(0.11 -0.11)">
       <use xlink:href="#DejaVuSans-15"/>
       <use xlink:href="#DejaVuSans-18" transform="translate(63.625 0)"/>
       <use xlink:href="#DejaVuSans-10" transform="translate(127.25 0)"/>
       <use xlink:href="#DejaVuSans-15" transform="translate(163.328125 0)"/>
       <use xlink:href="#DejaVuSans-1c" transform="translate(226.953125 0)"/>
       <use xlink:href="#DejaVuSans-3" transform="translate(290.578125 0)"/>
       <use xlink:href="#DejaVuSans-5c" transform="translate(322.359375 0)"/>
       <use xlink:href="#DejaVuSans-48" transform="translate(381.546875 0)"/>
       <use xlink:href="#DejaVuSans-44" transform="translate(443.078125 0)"/>
       <use xlink:href="#DejaVuSans-55" transform="translate(504.359375 0)"/>
       <use xlink:href="#DejaVuSans-56" transform="translate(545.46875 0)"/>
      </g>
     </g>
    </g>
    <g id="xtick_9">
     <g id="line2d_9">
      <path d="M 518.133331 483.432189 
L 518.133331 28.32 
" clip-path="url(#p4544deca4b)" style="fill: none; stroke: #cccccc; stroke-linecap: round"/>
     </g>
     <g id="text_9">
      <!-- 30-34 years -->
      <g style="fill: #262626" transform="translate(469.785291 545.321233) rotate(-45) scale(0.11 -0.11)">
       <defs>
        <path id="DejaVuSans-16" d="M 2597 2516 
Q 3050 2419 3304 2112 
Q 3559 1806 3559 1356 
Q 3559 666 3084 287 
Q 2609 -91 1734 -91 
Q 1441 -91 1130 -33 
Q 819 25 488 141 
L 488 750 
Q 750 597 1062 519 
Q 1375 441 1716 441 
Q 2309 441 2620 675 
Q 2931 909 2931 1356 
Q 2931 1769 2642 2001 
Q 2353 2234 1838 2234 
L 1294 2234 
L 1294 2753 
L 1863 2753 
Q 2328 2753 2575 2939 
Q 2822 3125 2822 3475 
Q 2822 3834 2567 4026 
Q 2313 4219 1838 4219 
Q 1578 4219 1281 4162 
Q 984 4106 628 3988 
L 628 4550 
Q 988 4650 1302 4700 
Q 1616 4750 1894 4750 
Q 2613 4750 3031 4423 
Q 3450 4097 3450 3541 
Q 3450 3153 3228 2886 
Q 3006 2619 2597 2516 
z
" transform="scale(0.015625)"/>
       </defs>
       <use xlink:href="#DejaVuSans-16"/>
       <use xlink:href="#DejaVuSans-13" transform="translate(63.625 0)"/>
       <use xlink:href="#DejaVuSans-10" transform="translate(127.25 0)"/>
       <use xlink:href="#DejaVuSans-16" transform="translate(163.328125 0)"/>
       <use xlink:href="#DejaVuSans-17" transform="translate(226.953125 0)"/>
       <use xlink:href="#DejaVuSans-3" transform="translate(290.578125 0)"/>
       <use xlink:href="#DejaVuSans-5c" transform="translate(322.359375 0)"/>
       <use xlink:href="#DejaVuSans-48" transform="translate(381.546875 0)"/>
       <use xlink:href="#DejaVuSans-44" transform="translate(443.078125 0)"/>
       <use xlink:href="#DejaVuSans-55" transform="translate(504.359375 0)"/>
       <use xlink:href="#DejaVuSans-56" transform="translate(545.46875 0)"/>
      </g>
     </g>
    </g>
    <g id="xtick_10">
     <g id="line2d_10">
      <path d="M 570.092048 483.432189 
L 570.092048 28.32 
" clip-path="url(#p4544deca4b)" style="fill: none; stroke: #cccccc; stroke-linecap: round"/>
     </g>
     <g id="text_10">
      <!-- 35-39 years -->
      <g style="fill: #262626" transform="translate(521.744008 545.321233) rotate(-45) scale(0.11 -0.11)">
       <use xlink:href="#DejaVuSans-16"/>
       <use xlink:href="#DejaVuSans-18" transform="translate(63.625 0)"/>
       <use xlink:href="#DejaVuSans-10" transform="translate(127.25 0)"/>
       <use xlink:href="#DejaVuSans-16" transform="translate(163.328125 0)"/>
       <use xlink:href="#DejaVuSans-1c" transform="translate(226.953125 0)"/>
       <use xlink:href="#DejaVuSans-3" transform="translate(290.578125 0)"/>
       <use xlink:href="#DejaVuSans-5c" transform="translate(322.359375 0)"/>
       <use xlink:href="#DejaVuSans-48" transform="translate(381.546875 0)"/>
       <use xlink:href="#DejaVuSans-44" transform="translate(443.078125 0)"/>
       <use xlink:href="#DejaVuSans-55" transform="translate(504.359375 0)"/>
       <use xlink:href="#DejaVuSans-56" transform="translate(545.46875 0)"/>
      </g>
     </g>
    </g>
    <g id="xtick_11">
     <g id="line2d_11">
      <path d="M 622.050765 483.432189 
L 622.050765 28.32 
" clip-path="url(#p4544deca4b)" style="fill: none; stroke: #cccccc; stroke-linecap: round"/>
     </g>
     <g id="text_11">
      <!-- 40-44 years -->
      <g style="fill: #262626" transform="translate(573.702725 545.321233) rotate(-45) scale(0.11 -0.11)">
       <use xlink:href="#DejaVuSans-17"/>
       <use xlink:href="#DejaVuSans-13" transform="translate(63.625 0)"/>
       <use xlink:href="#DejaVuSans-10" transform="translate(127.25 0)"/>
       <use xlink:href="#DejaVuSans-17" transform="translate(163.328125 0)"/>
       <use xlink:href="#DejaVuSans-17" transform="translate(226.953125 0)"/>
       <use xlink:href="#DejaVuSans-3" transform="translate(290.578125 0)"/>
       <use xlink:href="#DejaVuSans-5c" transform="translate(322.359375 0)"/>
       <use xlink:href="#DejaVuSans-48" transform="translate(381.546875 0)"/>
       <use xlink:href="#DejaVuSans-44" transform="translate(443.078125 0)"/>
       <use xlink:href="#DejaVuSans-55" transform="translate(504.359375 0)"/>
       <use xlink:href="#DejaVuSans-56" transform="translate(545.46875 0)"/>
      </g>
     </g>
    </g>
    <g id="xtick_12">
     <g id="line2d_12">
      <path d="M 674.009482 483.432189 
L 674.009482 28.32 
" clip-path="url(#p4544deca4b)" style="fill: none; stroke: #cccccc; stroke-linecap: round"/>
     </g>
     <g id="text_12">
      <!-- 45-49 years -->
      <g style="fill: #262626" transform="translate(625.661442 545.321233) rotate(-45) scale(0.11 -0.11)">
       <use xlink:href="#DejaVuSans-17"/>
       <use xlink:href="#DejaVuSans-18" transform="translate(63.625 0)"/>
       <use xlink:href="#DejaVuSans-10" transform="translate(127.25 0)"/>
       <use xlink:href="#DejaVuSans-17" transform="translate(163.328125 0)"/>
       <use xlink:href="#DejaVuSans-1c" transform="translate(226.953125 0)"/>
       <use xlink:href="#DejaVuSans-3" transform="translate(290.578125 0)"/>
       <use xlink:href="#DejaVuSans-5c" transform="translate(322.359375 0)"/>
       <use xlink:href="#DejaVuSans-48" transform="translate(381.546875 0)"/>
       <use xlink:href="#DejaVuSans-44" transform="translate(443.078125 0)"/>
       <use xlink:href="#DejaVuSans-55" transform="translate(504.359375 0)"/>
       <use xlink:href="#DejaVuSans-56" transform="translate(545.46875 0)"/>
      </g>
     </g>
    </g>
    <g id="xtick_13">
     <g id="line2d_13">
      <path d="M 725.968199 483.432189 
L 725.968199 28.32 
" clip-path="url(#p4544deca4b)" style="fill: none; stroke: #cccccc; stroke-linecap: round"/>
     </g>
     <g id="text_13">
      <!-- 50-54 years -->
      <g style="fill: #262626" transform="translate(677.62016 545.321233) rotate(-45) scale(0.11 -0.11)">
       <use xlink:href="#DejaVuSans-18"/>
       <use xlink:href="#DejaVuSans-13" transform="translate(63.625 0)"/>
       <use xlink:href="#DejaVuSans-10" transform="translate(127.25 0)"/>
       <use xlink:href="#DejaVuSans-18" transform="translate(163.328125 0)"/>
       <use xlink:href="#DejaVuSans-17" transform="translate(226.953125 0)"/>
       <use xlink:href="#DejaVuSans-3" transform="translate(290.578125 0)"/>
       <use xlink:href="#DejaVuSans-5c" transform="translate(322.359375 0)"/>
       <use xlink:href="#DejaVuSans-48" transform="translate(381.546875 0)"/>
       <use xlink:href="#DejaVuSans-44" transform="translate(443.078125 0)"/>
       <use xlink:href="#DejaVuSans-55" transform="translate(504.359375 0)"/>
       <use xlink:href="#DejaVuSans-56" transform="translate(545.46875 0)"/>
      </g>
     </g>
    </g>
    <g id="xtick_14">
     <g id="line2d_14">
      <path d="M 777.926916 483.432189 
L 777.926916 28.32 
" clip-path="url(#p4544deca4b)" style="fill: none; stroke: #cccccc; stroke-linecap: round"/>
     </g>
     <g id="text_14">
      <!-- 55-59 years -->
      <g style="fill: #262626" transform="translate(729.578877 545.321233) rotate(-45) scale(0.11 -0.11)">
       <use xlink:href="#DejaVuSans-18"/>
       <use xlink:href="#DejaVuSans-18" transform="translate(63.625 0)"/>
       <use xlink:href="#DejaVuSans-10" transform="translate(127.25 0)"/>
       <use xlink:href="#DejaVuSans-18" transform="translate(163.328125 0)"/>
       <use xlink:href="#DejaVuSans-1c" transform="translate(226.953125 0)"/>
       <use xlink:href="#DejaVuSans-3" transform="translate(290.578125 0)"/>
       <use xlink:href="#DejaVuSans-5c" transform="translate(322.359375 0)"/>
       <use xlink:href="#DejaVuSans-48" transform="translate(381.546875 0)"/>
       <use xlink:href="#DejaVuSans-44" transform="translate(443.078125 0)"/>
       <use xlink:href="#DejaVuSans-55" transform="translate(504.359375 0)"/>
       <use xlink:href="#DejaVuSans-56" transform="translate(545.46875 0)"/>
      </g>
     </g>
    </g>
    <g id="xtick_15">
     <g id="line2d_15">
      <path d="M 829.885633 483.432189 
L 829.885633 28.32 
" clip-path="url(#p4544deca4b)" style="fill: none; stroke: #cccccc; stroke-linecap: round"/>
     </g>
     <g id="text_15">
      <!-- 60-64 years -->
      <g style="fill: #262626" transform="translate(781.537594 545.321233) rotate(-45) scale(0.11 -0.11)">
       <defs>
        <path id="DejaVuSans-19" d="M 2113 2584 
Q 1688 2584 1439 2293 
Q 1191 2003 1191 1497 
Q 1191 994 1439 701 
Q 1688 409 2113 409 
Q 2538 409 2786 701 
Q 3034 994 3034 1497 
Q 3034 2003 2786 2293 
Q 2538 2584 2113 2584 
z
M 3366 4563 
L 3366 3988 
Q 3128 4100 2886 4159 
Q 2644 4219 2406 4219 
Q 1781 4219 1451 3797 
Q 1122 3375 1075 2522 
Q 1259 2794 1537 2939 
Q 1816 3084 2150 3084 
Q 2853 3084 3261 2657 
Q 3669 2231 3669 1497 
Q 3669 778 3244 343 
Q 2819 -91 2113 -91 
Q 1303 -91 875 529 
Q 447 1150 447 2328 
Q 447 3434 972 4092 
Q 1497 4750 2381 4750 
Q 2619 4750 2861 4703 
Q 3103 4656 3366 4563 
z
" transform="scale(0.015625)"/>
       </defs>
       <use xlink:href="#DejaVuSans-19"/>
       <use xlink:href="#DejaVuSans-13" transform="translate(63.625 0)"/>
       <use xlink:href="#DejaVuSans-10" transform="translate(127.25 0)"/>
       <use xlink:href="#DejaVuSans-19" transform="translate(163.328125 0)"/>
       <use xlink:href="#DejaVuSans-17" transform="translate(226.953125 0)"/>
       <use xlink:href="#DejaVuSans-3" transform="translate(290.578125 0)"/>
       <use xlink:href="#DejaVuSans-5c" transform="translate(322.359375 0)"/>
       <use xlink:href="#DejaVuSans-48" transform="translate(381.546875 0)"/>
       <use xlink:href="#DejaVuSans-44" transform="translate(443.078125 0)"/>
       <use xlink:href="#DejaVuSans-55" transform="translate(504.359375 0)"/>
       <use xlink:href="#DejaVuSans-56" transform="translate(545.46875 0)"/>
      </g>
     </g>
    </g>
    <g id="xtick_16">
     <g id="line2d_16">
      <path d="M 881.84435 483.432189 
L 881.84435 28.32 
" clip-path="url(#p4544deca4b)" style="fill: none; stroke: #cccccc; stroke-linecap: round"/>
     </g>
     <g id="text_16">
      <!-- 65-69 years -->
      <g style="fill: #262626" transform="translate(833.496311 545.321233) rotate(-45) scale(0.11 -0.11)">
       <use xlink:href="#DejaVuSans-19"/>
       <use xlink:href="#DejaVuSans-18" transform="translate(63.625 0)"/>
       <use xlink:href="#DejaVuSans-10" transform="translate(127.25 0)"/>
       <use xlink:href="#DejaVuSans-19" transform="translate(163.328125 0)"/>
       <use xlink:href="#DejaVuSans-1c" transform="translate(226.953125 0)"/>
       <use xlink:href="#DejaVuSans-3" transform="translate(290.578125 0)"/>
       <use xlink:href="#DejaVuSans-5c" transform="translate(322.359375 0)"/>
       <use xlink:href="#DejaVuSans-48" transform="translate(381.546875 0)"/>
       <use xlink:href="#DejaVuSans-44" transform="translate(443.078125 0)"/>
       <use xlink:href="#DejaVuSans-55" transform="translate(504.359375 0)"/>
       <use xlink:href="#DejaVuSans-56" transform="translate(545.46875 0)"/>
      </g>
     </g>
    </g>
    <g id="xtick_17">
     <g id="line2d_17">
      <path d="M 933.803067 483.432189 
L 933.803067 28.32 
" clip-path="url(#p4544deca4b)" style="fill: none; stroke: #cccccc; stroke-linecap: round"/>
     </g>
     <g id="text_17">
      <!-- 70-74 years -->
      <g style="fill: #262626" transform="translate(885.455028 545.321233) rotate(-45) scale(0.11 -0.11)">
       <use xlink:href="#DejaVuSans-1a"/>
       <use xlink:href="#DejaVuSans-13" transform="translate(63.625 0)"/>
       <use xlink:href="#DejaVuSans-10" transform="translate(127.25 0)"/>
       <use xlink:href="#DejaVuSans-1a" transform="translate(163.328125 0)"/>
       <use xlink:href="#DejaVuSans-17" transform="translate(226.953125 0)"/>
       <use xlink:href="#DejaVuSans-3" transform="translate(290.578125 0)"/>
       <use xlink:href="#DejaVuSans-5c" transform="translate(322.359375 0)"/>
       <use xlink:href="#DejaVuSans-48" transform="translate(381.546875 0)"/>
       <use xlink:href="#DejaVuSans-44" transform="translate(443.078125 0)"/>
       <use xlink:href="#DejaVuSans-55" transform="translate(504.359375 0)"/>
       <use xlink:href="#DejaVuSans-56" transform="translate(545.46875 0)"/>
      </g>
     </g>
    </g>
    <g id="xtick_18">
     <g id="line2d_18">
      <path d="M 985.761785 483.432189 
L 985.761785 28.32 
" clip-path="url(#p4544deca4b)" style="fill: none; stroke: #cccccc; stroke-linecap: round"/>
     </g>
     <g id="text_18">
      <!-- 75-79 years -->
      <g style="fill: #262626" transform="translate(937.413745 545.321233) rotate(-45) scale(0.11 -0.11)">
       <use xlink:href="#DejaVuSans-1a"/>
       <use xlink:href="#DejaVuSans-18" transform="translate(63.625 0)"/>
       <use xlink:href="#DejaVuSans-10" transform="translate(127.25 0)"/>
       <use xlink:href="#DejaVuSans-1a" transform="translate(163.328125 0)"/>
       <use xlink:href="#DejaVuSans-1c" transform="translate(226.953125 0)"/>
       <use xlink:href="#DejaVuSans-3" transform="translate(290.578125 0)"/>
       <use xlink:href="#DejaVuSans-5c" transform="translate(322.359375 0)"/>
       <use xlink:href="#DejaVuSans-48" transform="translate(381.546875 0)"/>
       <use xlink:href="#DejaVuSans-44" transform="translate(443.078125 0)"/>
       <use xlink:href="#DejaVuSans-55" transform="translate(504.359375 0)"/>
       <use xlink:href="#DejaVuSans-56" transform="translate(545.46875 0)"/>
      </g>
     </g>
    </g>
    <g id="xtick_19">
     <g id="line2d_19">
      <path d="M 1037.720502 483.432189 
L 1037.720502 28.32 
" clip-path="url(#p4544deca4b)" style="fill: none; stroke: #cccccc; stroke-linecap: round"/>
     </g>
     <g id="text_19">
      <!-- 80-84 years -->
      <g style="fill: #262626" transform="translate(989.372462 545.321233) rotate(-45) scale(0.11 -0.11)">
       <use xlink:href="#DejaVuSans-1b"/>
       <use xlink:href="#DejaVuSans-13" transform="translate(63.625 0)"/>
       <use xlink:href="#DejaVuSans-10" transform="translate(127.25 0)"/>
       <use xlink:href="#DejaVuSans-1b" transform="translate(163.328125 0)"/>
       <use xlink:href="#DejaVuSans-17" transform="translate(226.953125 0)"/>
       <use xlink:href="#DejaVuSans-3" transform="translate(290.578125 0)"/>
       <use xlink:href="#DejaVuSans-5c" transform="translate(322.359375 0)"/>
       <use xlink:href="#DejaVuSans-48" transform="translate(381.546875 0)"/>
       <use xlink:href="#DejaVuSans-44" transform="translate(443.078125 0)"/>
       <use xlink:href="#DejaVuSans-55" transform="translate(504.359375 0)"/>
       <use xlink:href="#DejaVuSans-56" transform="translate(545.46875 0)"/>
      </g>
     </g>
    </g>
    <g id="xtick_20">
     <g id="line2d_20">
      <path d="M 1089.679219 483.432189 
L 1089.679219 28.32 
" clip-path="url(#p4544deca4b)" style="fill: none; stroke: #cccccc; stroke-linecap: round"/>
     </g>
     <g id="text_20">
      <!-- 85+ years -->
      <g style="fill: #262626" transform="translate(1047.517259 539.135154) rotate(-45) scale(0.11 -0.11)">
       <defs>
        <path id="DejaVuSans-e" d="M 2944 4013 
L 2944 2272 
L 4684 2272 
L 4684 1741 
L 2944 1741 
L 2944 0 
L 2419 0 
L 2419 1741 
L 678 1741 
L 678 2272 
L 2419 2272 
L 2419 4013 
L 2944 4013 
z
" transform="scale(0.015625)"/>
       </defs>
       <use xlink:href="#DejaVuSans-1b"/>
       <use xlink:href="#DejaVuSans-18" transform="translate(63.625 0)"/>
       <use xlink:href="#DejaVuSans-e" transform="translate(127.25 0)"/>
       <use xlink:href="#DejaVuSans-3" transform="translate(211.046875 0)"/>
       <use xlink:href="#DejaVuSans-5c" transform="translate(242.828125 0)"/>
       <use xlink:href="#DejaVuSans-48" transform="translate(302.015625 0)"/>
       <use xlink:href="#DejaVuSans-44" transform="translate(363.546875 0)"/>
       <use xlink:href="#DejaVuSans-55" transform="translate(424.828125 0)"/>
       <use xlink:href="#DejaVuSans-56" transform="translate(465.9375 0)"/>
      </g>
     </g>
    </g>
    <g id="text_21">
     <!-- Age Group -->
     <g style="fill: #262626" transform="translate(564.292969 560.307006) scale(0.12 -0.12)">
      <defs>
       <path id="DejaVuSans-24" d="M 2188 4044 
L 1331 1722 
L 3047 1722 
L 2188 4044 
z
M 1831 4666 
L 2547 4666 
L 4325 0 
L 3669 0 
L 3244 1197 
L 1141 1197 
L 716 0 
L 50 0 
L 1831 4666 
z
" transform="scale(0.015625)"/>
       <path id="DejaVuSans-4a" d="M 2906 1791 
Q 2906 2416 2648 2759 
Q 2391 3103 1925 3103 
Q 1463 3103 1205 2759 
Q 947 2416 947 1791 
Q 947 1169 1205 825 
Q 1463 481 1925 481 
Q 2391 481 2648 825 
Q 2906 1169 2906 1791 
z
M 3481 434 
Q 3481 -459 3084 -895 
Q 2688 -1331 1869 -1331 
Q 1566 -1331 1297 -1286 
Q 1028 -1241 775 -1147 
L 775 -588 
Q 1028 -725 1275 -790 
Q 1522 -856 1778 -856 
Q 2344 -856 2625 -561 
Q 2906 -266 2906 331 
L 2906 616 
Q 2728 306 2450 153 
Q 2172 0 1784 0 
Q 1141 0 747 490 
Q 353 981 353 1791 
Q 353 2603 747 3093 
Q 1141 3584 1784 3584 
Q 2172 3584 2450 3431 
Q 2728 3278 2906 2969 
L 2906 3500 
L 3481 3500 
L 3481 434 
z
" transform="scale(0.015625)"/>
       <path id="DejaVuSans-2a" d="M 3809 666 
L 3809 1919 
L 2778 1919 
L 2778 2438 
L 4434 2438 
L 4434 434 
Q 4069 175 3628 42 
Q 3188 -91 2688 -91 
Q 1594 -91 976 548 
Q 359 1188 359 2328 
Q 359 3472 976 4111 
Q 1594 4750 2688 4750 
Q 3144 4750 3555 4637 
Q 3966 4525 4313 4306 
L 4313 3634 
Q 3963 3931 3569 4081 
Q 3175 4231 2741 4231 
Q 1884 4231 1454 3753 
Q 1025 3275 1025 2328 
Q 1025 1384 1454 906 
Q 1884 428 2741 428 
Q 3075 428 3337 486 
Q 3600 544 3809 666 
z
" transform="scale(0.015625)"/>
       <path id="DejaVuSans-52" d="M 1959 3097 
Q 1497 3097 1228 2736 
Q 959 2375 959 1747 
Q 959 1119 1226 758 
Q 1494 397 1959 397 
Q 2419 397 2687 759 
Q 2956 1122 2956 1747 
Q 2956 2369 2687 2733 
Q 2419 3097 1959 3097 
z
M 1959 3584 
Q 2709 3584 3137 3096 
Q 3566 2609 3566 1747 
Q 3566 888 3137 398 
Q 2709 -91 1959 -91 
Q 1206 -91 779 398 
Q 353 888 353 1747 
Q 353 2609 779 3096 
Q 1206 3584 1959 3584 
z
" transform="scale(0.015625)"/>
       <path id="DejaVuSans-58" d="M 544 1381 
L 544 3500 
L 1119 3500 
L 1119 1403 
Q 1119 906 1312 657 
Q 1506 409 1894 409 
Q 2359 409 2629 706 
Q 2900 1003 2900 1516 
L 2900 3500 
L 3475 3500 
L 3475 0 
L 2900 0 
L 2900 538 
Q 2691 219 2414 64 
Q 2138 -91 1772 -91 
Q 1169 -91 856 284 
Q 544 659 544 1381 
z
M 1991 3584 
L 1991 3584 
z
" transform="scale(0.015625)"/>
       <path id="DejaVuSans-53" d="M 1159 525 
L 1159 -1331 
L 581 -1331 
L 581 3500 
L 1159 3500 
L 1159 2969 
Q 1341 3281 1617 3432 
Q 1894 3584 2278 3584 
Q 2916 3584 3314 3078 
Q 3713 2572 3713 1747 
Q 3713 922 3314 415 
Q 2916 -91 2278 -91 
Q 1894 -91 1617 61 
Q 1341 213 1159 525 
z
M 3116 1747 
Q 3116 2381 2855 2742 
Q 2594 3103 2138 3103 
Q 1681 3103 1420 2742 
Q 1159 2381 1159 1747 
Q 1159 1113 1420 752 
Q 1681 391 2138 391 
Q 2594 391 2855 752 
Q 3116 1113 3116 1747 
z
" transform="scale(0.015625)"/>
      </defs>
      <use xlink:href="#DejaVuSans-24"/>
      <use xlink:href="#DejaVuSans-4a" transform="translate(68.40625 0)"/>
      <use xlink:href="#DejaVuSans-48" transform="translate(131.890625 0)"/>
      <use xlink:href="#DejaVuSans-3" transform="translate(193.421875 0)"/>
      <use xlink:href="#DejaVuSans-2a" transform="translate(225.203125 0)"/>
      <use xlink:href="#DejaVuSans-55" transform="translate(302.6875 0)"/>
      <use xlink:href="#DejaVuSans-52" transform="translate(341.59375 0)"/>
      <use xlink:href="#DejaVuSans-58" transform="translate(402.78125 0)"/>
      <use xlink:href="#DejaVuSans-53" transform="translate(466.15625 0)"/>
     </g>
    </g>
   </g>
   <g id="matplotlib.axis_2">
    <g id="ytick_1">
     <g id="line2d_21">
      <path d="M 53.102812 464.143544 
L 1139.04 464.143544 
" clip-path="url(#p4544deca4b)" style="fill: none; stroke: #cccccc; stroke-linecap: round"/>
     </g>
     <g id="text_22">
      <!-- 0 -->
      <g style="fill: #262626" transform="translate(36.604062 468.322255) scale(0.11 -0.11)">
       <use xlink:href="#DejaVuSans-13"/>
      </g>
     </g>
    </g>
    <g id="ytick_2">
     <g id="line2d_22">
      <path d="M 53.102812 384.176336 
L 1139.04 384.176336 
" clip-path="url(#p4544deca4b)" style="fill: none; stroke: #cccccc; stroke-linecap: round"/>
     </g>
     <g id="text_23">
      <!-- 5 -->
      <g style="fill: #262626" transform="translate(36.604062 388.355047) scale(0.11 -0.11)">
       <use xlink:href="#DejaVuSans-18"/>
      </g>
     </g>
    </g>
    <g id="ytick_3">
     <g id="line2d_23">
      <path d="M 53.102812 304.209127 
L 1139.04 304.209127 
" clip-path="url(#p4544deca4b)" style="fill: none; stroke: #cccccc; stroke-linecap: round"/>
     </g>
     <g id="text_24">
      <!-- 10 -->
      <g style="fill: #262626" transform="translate(29.605312 308.387838) scale(0.11 -0.11)">
       <use xlink:href="#DejaVuSans-14"/>
       <use xlink:href="#DejaVuSans-13" transform="translate(63.625 0)"/>
      </g>
     </g>
    </g>
    <g id="ytick_4">
     <g id="line2d_24">
      <path d="M 53.102812 224.241919 
L 1139.04 224.241919 
" clip-path="url(#p4544deca4b)" style="fill: none; stroke: #cccccc; stroke-linecap: round"/>
     </g>
     <g id="text_25">
      <!-- 15 -->
      <g style="fill: #262626" transform="translate(29.605312 228.42063) scale(0.11 -0.11)">
       <use xlink:href="#DejaVuSans-14"/>
       <use xlink:href="#DejaVuSans-18" transform="translate(63.625 0)"/>
      </g>
     </g>
    </g>
    <g id="ytick_5">
     <g id="line2d_25">
      <path d="M 53.102812 144.274711 
L 1139.04 144.274711 
" clip-path="url(#p4544deca4b)" style="fill: none; stroke: #cccccc; stroke-linecap: round"/>
     </g>
     <g id="text_26">
      <!-- 20 -->
      <g style="fill: #262626" transform="translate(29.605312 148.453422) scale(0.11 -0.11)">
       <use xlink:href="#DejaVuSans-15"/>
       <use xlink:href="#DejaVuSans-13" transform="translate(63.625 0)"/>
      </g>
     </g>
    </g>
    <g id="ytick_6">
     <g id="line2d_26">
      <path d="M 53.102812 64.307503 
L 1139.04 64.307503 
" clip-path="url(#p4544deca4b)" style="fill: none; stroke: #cccccc; stroke-linecap: round"/>
     </g>
     <g id="text_27">
      <!-- 25 -->
      <g style="fill: #262626" transform="translate(29.605312 68.486214) scale(0.11 -0.11)">
       <use xlink:href="#DejaVuSans-15"/>
       <use xlink:href="#DejaVuSans-18" transform="translate(63.625 0)"/>
      </g>
     </g>
    </g>
    <g id="text_28">
     <!-- Percent of Deaths -->
     <g style="fill: #262626" transform="translate(22.7225 309.318282) rotate(-90) scale(0.12 -0.12)">
      <defs>
       <path id="DejaVuSans-33" d="M 1259 4147 
L 1259 2394 
L 2053 2394 
Q 2494 2394 2734 2622 
Q 2975 2850 2975 3272 
Q 2975 3691 2734 3919 
Q 2494 4147 2053 4147 
L 1259 4147 
z
M 628 4666 
L 2053 4666 
Q 2838 4666 3239 4311 
Q 3641 3956 3641 3272 
Q 3641 2581 3239 2228 
Q 2838 1875 2053 1875 
L 1259 1875 
L 1259 0 
L 628 0 
L 628 4666 
z
" transform="scale(0.015625)"/>
       <path id="DejaVuSans-46" d="M 3122 3366 
L 3122 2828 
Q 2878 2963 2633 3030 
Q 2388 3097 2138 3097 
Q 1578 3097 1268 2742 
Q 959 2388 959 1747 
Q 959 1106 1268 751 
Q 1578 397 2138 397 
Q 2388 397 2633 464 
Q 2878 531 3122 666 
L 3122 134 
Q 2881 22 2623 -34 
Q 2366 -91 2075 -91 
Q 1284 -91 818 406 
Q 353 903 353 1747 
Q 353 2603 823 3093 
Q 1294 3584 2113 3584 
Q 2378 3584 2631 3529 
Q 2884 3475 3122 3366 
z
" transform="scale(0.015625)"/>
       <path id="DejaVuSans-51" d="M 3513 2113 
L 3513 0 
L 2938 0 
L 2938 2094 
Q 2938 2591 2744 2837 
Q 2550 3084 2163 3084 
Q 1697 3084 1428 2787 
Q 1159 2491 1159 1978 
L 1159 0 
L 581 0 
L 581 3500 
L 1159 3500 
L 1159 2956 
Q 1366 3272 1645 3428 
Q 1925 3584 2291 3584 
Q 2894 3584 3203 3211 
Q 3513 2838 3513 2113 
z
" transform="scale(0.015625)"/>
       <path id="DejaVuSans-57" d="M 1172 4494 
L 1172 3500 
L 2356 3500 
L 2356 3053 
L 1172 3053 
L 1172 1153 
Q 1172 725 1289 603 
Q 1406 481 1766 481 
L 2356 481 
L 2356 0 
L 1766 0 
Q 1100 0 847 248 
Q 594 497 594 1153 
L 594 3053 
L 172 3053 
L 172 3500 
L 594 3500 
L 594 4494 
L 1172 4494 
z
" transform="scale(0.015625)"/>
       <path id="DejaVuSans-49" d="M 2375 4863 
L 2375 4384 
L 1825 4384 
Q 1516 4384 1395 4259 
Q 1275 4134 1275 3809 
L 1275 3500 
L 2222 3500 
L 2222 3053 
L 1275 3053 
L 1275 0 
L 697 0 
L 697 3053 
L 147 3053 
L 147 3500 
L 697 3500 
L 697 3744 
Q 697 4328 969 4595 
Q 1241 4863 1831 4863 
L 2375 4863 
z
" transform="scale(0.015625)"/>
       <path id="DejaVuSans-27" d="M 1259 4147 
L 1259 519 
L 2022 519 
Q 2988 519 3436 956 
Q 3884 1394 3884 2338 
Q 3884 3275 3436 3711 
Q 2988 4147 2022 4147 
L 1259 4147 
z
M 628 4666 
L 1925 4666 
Q 3281 4666 3915 4102 
Q 4550 3538 4550 2338 
Q 4550 1131 3912 565 
Q 3275 0 1925 0 
L 628 0 
L 628 4666 
z
" transform="scale(0.015625)"/>
       <path id="DejaVuSans-4b" d="M 3513 2113 
L 3513 0 
L 2938 0 
L 2938 2094 
Q 2938 2591 2744 2837 
Q 2550 3084 2163 3084 
Q 1697 3084 1428 2787 
Q 1159 2491 1159 1978 
L 1159 0 
L 581 0 
L 581 4863 
L 1159 4863 
L 1159 2956 
Q 1366 3272 1645 3428 
Q 1925 3584 2291 3584 
Q 2894 3584 3203 3211 
Q 3513 2838 3513 2113 
z
" transform="scale(0.015625)"/>
      </defs>
      <use xlink:href="#DejaVuSans-33"/>
      <use xlink:href="#DejaVuSans-48" transform="translate(56.734375 0)"/>
      <use xlink:href="#DejaVuSans-55" transform="translate(118.265625 0)"/>
      <use xlink:href="#DejaVuSans-46" transform="translate(157.171875 0)"/>
      <use xlink:href="#DejaVuSans-48" transform="translate(212.15625 0)"/>
      <use xlink:href="#DejaVuSans-51" transform="translate(273.6875 0)"/>
      <use xlink:href="#DejaVuSans-57" transform="translate(337.0625 0)"/>
      <use xlink:href="#DejaVuSans-3" transform="translate(376.265625 0)"/>
      <use xlink:href="#DejaVuSans-52" transform="translate(408.046875 0)"/>
      <use xlink:href="#DejaVuSans-49" transform="translate(469.234375 0)"/>
      <use xlink:href="#DejaVuSans-3" transform="translate(504.4375 0)"/>
      <use xlink:href="#DejaVuSans-27" transform="translate(536.21875 0)"/>
      <use xlink:href="#DejaVuSans-48" transform="translate(613.21875 0)"/>
      <use xlink:href="#DejaVuSans-44" transform="translate(674.75 0)"/>
      <use xlink:href="#DejaVuSans-57" transform="translate(736.03125 0)"/>
      <use xlink:href="#DejaVuSans-4b" transform="translate(775.234375 0)"/>
      <use xlink:href="#DejaVuSans-56" transform="translate(838.609375 0)"/>
     </g>
    </g>
   </g>
   <g id="FillBetweenPolyCollection_1"/>
   <g id="FillBetweenPolyCollection_2"/>
   <g id="FillBetweenPolyCollection_3"/>
   <g id="FillBetweenPolyCollection_4"/>
   <g id="FillBetweenPolyCollection_5"/>
   <g id="FillBetweenPolyCollection_6"/>
   <g id="line2d_27">
    <path d="M 102.463594 442.45129 
L 154.422311 458.628564 
L 206.381028 460.466891 
L 258.339745 460.466891 
L 310.298462 456.422572 
L 362.257179 458.996229 
L 414.215896 441.348294 
L 466.174613 440.980628 
L 518.133331 433.259657 
L 570.092048 430.685999 
L 622.050765 422.597362 
L 674.009482 409.729076 
L 725.968199 406.052423 
L 777.926916 378.845189 
L 829.885633 341.710991 
L 881.84435 303.106131 
L 933.803067 279.575551 
L 985.761785 270.751583 
L 1037.720502 279.575551 
L 1089.679219 107.875844 
" clip-path="url(#p4544deca4b)" style="fill: none; stroke: #4c72b0; stroke-width: 1.5; stroke-linecap: round"/>
    <defs>
     <path id="mf2ac26e534" d="M 0 3 
C 0.795609 3 1.55874 2.683901 2.12132 2.12132 
C 2.683901 1.55874 3 0.795609 3 0 
C 3 -0.795609 2.683901 -1.55874 2.12132 -2.12132 
C 1.55874 -2.683901 0.795609 -3 0 -3 
C -0.795609 -3 -1.55874 -2.683901 -2.12132 -2.12132 
C -2.683901 -1.55874 -3 -0.795609 -3 0 
C -3 0.795609 -2.683901 1.55874 -2.12132 2.12132 
C -1.55874 2.683901 -0.795609 3 0 3 
z
" style="stroke: #ffffff; stroke-width: 0.75"/>
    </defs>
    <g clip-path="url(#p4544deca4b)">
     <use xlink:href="#mf2ac26e534" x="102.463594" y="442.45129" style="fill: #4c72b0; stroke: #ffffff; stroke-width: 0.75"/>
     <use xlink:href="#mf2ac26e534" x="154.422311" y="458.628564" style="fill: #4c72b0; stroke: #ffffff; stroke-width: 0.75"/>
     <use xlink:href="#mf2ac26e534" x="206.381028" y="460.466891" style="fill: #4c72b0; stroke: #ffffff; stroke-width: 0.75"/>
     <use xlink:href="#mf2ac26e534" x="258.339745" y="460.466891" style="fill: #4c72b0; stroke: #ffffff; stroke-width: 0.75"/>
     <use xlink:href="#mf2ac26e534" x="310.298462" y="456.422572" style="fill: #4c72b0; stroke: #ffffff; stroke-width: 0.75"/>
     <use xlink:href="#mf2ac26e534" x="362.257179" y="458.996229" style="fill: #4c72b0; stroke: #ffffff; stroke-width: 0.75"/>
     <use xlink:href="#mf2ac26e534" x="414.215896" y="441.348294" style="fill: #4c72b0; stroke: #ffffff; stroke-width: 0.75"/>
     <use xlink:href="#mf2ac26e534" x="466.174613" y="440.980628" style="fill: #4c72b0; stroke: #ffffff; stroke-width: 0.75"/>
     <use xlink:href="#mf2ac26e534" x="518.133331" y="433.259657" style="fill: #4c72b0; stroke: #ffffff; stroke-width: 0.75"/>
     <use xlink:href="#mf2ac26e534" x="570.092048" y="430.685999" style="fill: #4c72b0; stroke: #ffffff; stroke-width: 0.75"/>
     <use xlink:href="#mf2ac26e534" x="622.050765" y="422.597362" style="fill: #4c72b0; stroke: #ffffff; stroke-width: 0.75"/>
     <use xlink:href="#mf2ac26e534" x="674.009482" y="409.729076" style="fill: #4c72b0; stroke: #ffffff; stroke-width: 0.75"/>
     <use xlink:href="#mf2ac26e534" x="725.968199" y="406.052423" style="fill: #4c72b0; stroke: #ffffff; stroke-width: 0.75"/>
     <use xlink:href="#mf2ac26e534" x="777.926916" y="378.845189" style="fill: #4c72b0; stroke: #ffffff; stroke-width: 0.75"/>
     <use xlink:href="#mf2ac26e534" x="829.885633" y="341.710991" style="fill: #4c72b0; stroke: #ffffff; stroke-width: 0.75"/>
     <use xlink:href="#mf2ac26e534" x="881.84435" y="303.106131" style="fill: #4c72b0; stroke: #ffffff; stroke-width: 0.75"/>
     <use xlink:href="#mf2ac26e534" x="933.803067" y="279.575551" style="fill: #4c72b0; stroke: #ffffff; stroke-width: 0.75"/>
     <use xlink:href="#mf2ac26e534" x="985.761785" y="270.751583" style="fill: #4c72b0; stroke: #ffffff; stroke-width: 0.75"/>
     <use xlink:href="#mf2ac26e534" x="1037.720502" y="279.575551" style="fill: #4c72b0; stroke: #ffffff; stroke-width: 0.75"/>
     <use xlink:href="#mf2ac26e534" x="1089.679219" y="107.875844" style="fill: #4c72b0; stroke: #ffffff; stroke-width: 0.75"/>
    </g>
   </g>
   <g id="line2d_28">
    <path d="M 102.463594 457.792358 
L 154.422311 460.10188 
L 206.381028 462.700093 
L 258.339745 460.967951 
L 310.298462 458.658429 
L 362.257179 457.792358 
L 414.215896 443.935224 
L 466.174613 442.491773 
L 518.133331 432.098923 
L 570.092048 427.479878 
L 622.050765 420.551311 
L 674.009482 410.158461 
L 725.968199 405.250726 
L 777.926916 374.938247 
L 829.885633 335.098988 
L 881.84435 326.438279 
L 933.803067 299.590083 
L 985.761785 279.959144 
L 1037.720502 278.515692 
L 1089.679219 49.006918 
" clip-path="url(#p4544deca4b)" style="fill: none; stroke: #dd8452; stroke-width: 1.5; stroke-linecap: round"/>
    <defs>
     <path id="m357ae9919f" d="M 0 3 
C 0.795609 3 1.55874 2.683901 2.12132 2.12132 
C 2.683901 1.55874 3 0.795609 3 0 
C 3 -0.795609 2.683901 -1.55874 2.12132 -2.12132 
C 1.55874 -2.683901 0.795609 -3 0 -3 
C -0.795609 -3 -1.55874 -2.683901 -2.12132 -2.12132 
C -2.683901 -1.55874 -3 -0.795609 -3 0 
C -3 0.795609 -2.683901 1.55874 -2.12132 2.12132 
C -1.55874 2.683901 -0.795609 3 0 3 
z
" style="stroke: #ffffff; stroke-width: 0.75"/>
    </defs>
    <g clip-path="url(#p4544deca4b)">
     <use xlink:href="#m357ae9919f" x="102.463594" y="457.792358" style="fill: #dd8452; stroke: #ffffff; stroke-width: 0.75"/>
     <use xlink:href="#m357ae9919f" x="154.422311" y="460.10188" style="fill: #dd8452; stroke: #ffffff; stroke-width: 0.75"/>
     <use xlink:href="#m357ae9919f" x="206.381028" y="462.700093" style="fill: #dd8452; stroke: #ffffff; stroke-width: 0.75"/>
     <use xlink:href="#m357ae9919f" x="258.339745" y="460.967951" style="fill: #dd8452; stroke: #ffffff; stroke-width: 0.75"/>
     <use xlink:href="#m357ae9919f" x="310.298462" y="458.658429" style="fill: #dd8452; stroke: #ffffff; stroke-width: 0.75"/>
     <use xlink:href="#m357ae9919f" x="362.257179" y="457.792358" style="fill: #dd8452; stroke: #ffffff; stroke-width: 0.75"/>
     <use xlink:href="#m357ae9919f" x="414.215896" y="443.935224" style="fill: #dd8452; stroke: #ffffff; stroke-width: 0.75"/>
     <use xlink:href="#m357ae9919f" x="466.174613" y="442.491773" style="fill: #dd8452; stroke: #ffffff; stroke-width: 0.75"/>
     <use xlink:href="#m357ae9919f" x="518.133331" y="432.098923" style="fill: #dd8452; stroke: #ffffff; stroke-width: 0.75"/>
     <use xlink:href="#m357ae9919f" x="570.092048" y="427.479878" style="fill: #dd8452; stroke: #ffffff; stroke-width: 0.75"/>
     <use xlink:href="#m357ae9919f" x="622.050765" y="420.551311" style="fill: #dd8452; stroke: #ffffff; stroke-width: 0.75"/>
     <use xlink:href="#m357ae9919f" x="674.009482" y="410.158461" style="fill: #dd8452; stroke: #ffffff; stroke-width: 0.75"/>
     <use xlink:href="#m357ae9919f" x="725.968199" y="405.250726" style="fill: #dd8452; stroke: #ffffff; stroke-width: 0.75"/>
     <use xlink:href="#m357ae9919f" x="777.926916" y="374.938247" style="fill: #dd8452; stroke: #ffffff; stroke-width: 0.75"/>
     <use xlink:href="#m357ae9919f" x="829.885633" y="335.098988" style="fill: #dd8452; stroke: #ffffff; stroke-width: 0.75"/>
     <use xlink:href="#m357ae9919f" x="881.84435" y="326.438279" style="fill: #dd8452; stroke: #ffffff; stroke-width: 0.75"/>
     <use xlink:href="#m357ae9919f" x="933.803067" y="299.590083" style="fill: #dd8452; stroke: #ffffff; stroke-width: 0.75"/>
     <use xlink:href="#m357ae9919f" x="985.761785" y="279.959144" style="fill: #dd8452; stroke: #ffffff; stroke-width: 0.75"/>
     <use xlink:href="#m357ae9919f" x="1037.720502" y="278.515692" style="fill: #dd8452; stroke: #ffffff; stroke-width: 0.75"/>
     <use xlink:href="#m357ae9919f" x="1089.679219" y="49.006918" style="fill: #dd8452; stroke: #ffffff; stroke-width: 0.75"/>
    </g>
   </g>
   <g id="line2d_29">
    <path d="M 102.463594 455.160567 
L 154.422311 459.277765 
L 206.381028 460.400637 
L 258.339745 460.400637 
L 310.298462 456.283439 
L 362.257179 459.277765 
L 414.215896 440.937521 
L 466.174613 440.937521 
L 518.133331 432.703125 
L 570.092048 430.457381 
L 622.050765 421.848695 
L 674.009482 409.122811 
L 725.968199 405.379904 
L 777.926916 378.430973 
L 829.885633 340.253322 
L 881.84435 301.70138 
L 933.803067 278.869647 
L 985.761785 269.88667 
L 1037.720502 278.495356 
L 1089.679219 103.701599 
" clip-path="url(#p4544deca4b)" style="fill: none; stroke: #55a868; stroke-width: 1.5; stroke-linecap: round"/>
    <defs>
     <path id="mc2dd917e6b" d="M 0 3 
C 0.795609 3 1.55874 2.683901 2.12132 2.12132 
C 2.683901 1.55874 3 0.795609 3 0 
C 3 -0.795609 2.683901 -1.55874 2.12132 -2.12132 
C 1.55874 -2.683901 0.795609 -3 0 -3 
C -0.795609 -3 -1.55874 -2.683901 -2.12132 -2.12132 
C -2.683901 -1.55874 -3 -0.795609 -3 0 
C -3 0.795609 -2.683901 1.55874 -2.12132 2.12132 
C -1.55874 2.683901 -0.795609 3 0 3 
z
" style="stroke: #ffffff; stroke-width: 0.75"/>
    </defs>
    <g clip-path="url(#p4544deca4b)">
     <use xlink:href="#mc2dd917e6b" x="102.463594" y="455.160567" style="fill: #55a868; stroke: #ffffff; stroke-width: 0.75"/>
     <use xlink:href="#mc2dd917e6b" x="154.422311" y="459.277765" style="fill: #55a868; stroke: #ffffff; stroke-width: 0.75"/>
     <use xlink:href="#mc2dd917e6b" x="206.381028" y="460.400637" style="fill: #55a868; stroke: #ffffff; stroke-width: 0.75"/>
     <use xlink:href="#mc2dd917e6b" x="258.339745" y="460.400637" style="fill: #55a868; stroke: #ffffff; stroke-width: 0.75"/>
     <use xlink:href="#mc2dd917e6b" x="310.298462" y="456.283439" style="fill: #55a868; stroke: #ffffff; stroke-width: 0.75"/>
     <use xlink:href="#mc2dd917e6b" x="362.257179" y="459.277765" style="fill: #55a868; stroke: #ffffff; stroke-width: 0.75"/>
     <use xlink:href="#mc2dd917e6b" x="414.215896" y="440.937521" style="fill: #55a868; stroke: #ffffff; stroke-width: 0.75"/>
     <use xlink:href="#mc2dd917e6b" x="466.174613" y="440.937521" style="fill: #55a868; stroke: #ffffff; stroke-width: 0.75"/>
     <use xlink:href="#mc2dd917e6b" x="518.133331" y="432.703125" style="fill: #55a868; stroke: #ffffff; stroke-width: 0.75"/>
     <use xlink:href="#mc2dd917e6b" x="570.092048" y="430.457381" style="fill: #55a868; stroke: #ffffff; stroke-width: 0.75"/>
     <use xlink:href="#mc2dd917e6b" x="622.050765" y="421.848695" style="fill: #55a868; stroke: #ffffff; stroke-width: 0.75"/>
     <use xlink:href="#mc2dd917e6b" x="674.009482" y="409.122811" style="fill: #55a868; stroke: #ffffff; stroke-width: 0.75"/>
     <use xlink:href="#mc2dd917e6b" x="725.968199" y="405.379904" style="fill: #55a868; stroke: #ffffff; stroke-width: 0.75"/>
     <use xlink:href="#mc2dd917e6b" x="777.926916" y="378.430973" style="fill: #55a868; stroke: #ffffff; stroke-width: 0.75"/>
     <use xlink:href="#mc2dd917e6b" x="829.885633" y="340.253322" style="fill: #55a868; stroke: #ffffff; stroke-width: 0.75"/>
     <use xlink:href="#mc2dd917e6b" x="881.84435" y="301.70138" style="fill: #55a868; stroke: #ffffff; stroke-width: 0.75"/>
     <use xlink:href="#mc2dd917e6b" x="933.803067" y="278.869647" style="fill: #55a868; stroke: #ffffff; stroke-width: 0.75"/>
     <use xlink:href="#mc2dd917e6b" x="985.761785" y="269.88667" style="fill: #55a868; stroke: #ffffff; stroke-width: 0.75"/>
     <use xlink:href="#mc2dd917e6b" x="1037.720502" y="278.495356" style="fill: #55a868; stroke: #ffffff; stroke-width: 0.75"/>
     <use xlink:href="#mc2dd917e6b" x="1089.679219" y="103.701599" style="fill: #55a868; stroke: #ffffff; stroke-width: 0.75"/>
    </g>
   </g>
   <g id="line2d_30">
    <path d="M 102.463594 449.601509 
L 154.422311 459.669072 
L 206.381028 462.745271 
L 258.339745 460.228381 
L 310.298462 458.550454 
L 362.257179 457.991145 
L 414.215896 443.728764 
L 466.174613 442.889801 
L 518.133331 433.940856 
L 570.092048 428.627421 
L 622.050765 418.839513 
L 674.009482 410.170223 
L 725.968199 398.984042 
L 777.926916 376.052372 
L 829.885633 330.189032 
L 881.84435 317.604579 
L 933.803067 291.317054 
L 985.761785 279.851219 
L 1037.720502 283.766382 
L 1089.679219 78.779624 
" clip-path="url(#p4544deca4b)" style="fill: none; stroke: #c44e52; stroke-width: 1.5; stroke-linecap: round"/>
    <defs>
     <path id="m92e04566e3" d="M 0 3 
C 0.795609 3 1.55874 2.683901 2.12132 2.12132 
C 2.683901 1.55874 3 0.795609 3 0 
C 3 -0.795609 2.683901 -1.55874 2.12132 -2.12132 
C 1.55874 -2.683901 0.795609 -3 0 -3 
C -0.795609 -3 -1.55874 -2.683901 -2.12132 -2.12132 
C -2.683901 -1.55874 -3 -0.795609 -3 0 
C -3 0.795609 -2.683901 1.55874 -2.12132 2.12132 
C -1.55874 2.683901 -0.795609 3 0 3 
z
" style="stroke: #ffffff; stroke-width: 0.75"/>
    </defs>
    <g clip-path="url(#p4544deca4b)">
     <use xlink:href="#m92e04566e3" x="102.463594" y="449.601509" style="fill: #c44e52; stroke: #ffffff; stroke-width: 0.75"/>
     <use xlink:href="#m92e04566e3" x="154.422311" y="459.669072" style="fill: #c44e52; stroke: #ffffff; stroke-width: 0.75"/>
     <use xlink:href="#m92e04566e3" x="206.381028" y="462.745271" style="fill: #c44e52; stroke: #ffffff; stroke-width: 0.75"/>
     <use xlink:href="#m92e04566e3" x="258.339745" y="460.228381" style="fill: #c44e52; stroke: #ffffff; stroke-width: 0.75"/>
     <use xlink:href="#m92e04566e3" x="310.298462" y="458.550454" style="fill: #c44e52; stroke: #ffffff; stroke-width: 0.75"/>
     <use xlink:href="#m92e04566e3" x="362.257179" y="457.991145" style="fill: #c44e52; stroke: #ffffff; stroke-width: 0.75"/>
     <use xlink:href="#m92e04566e3" x="414.215896" y="443.728764" style="fill: #c44e52; stroke: #ffffff; stroke-width: 0.75"/>
     <use xlink:href="#m92e04566e3" x="466.174613" y="442.889801" style="fill: #c44e52; stroke: #ffffff; stroke-width: 0.75"/>
     <use xlink:href="#m92e04566e3" x="518.133331" y="433.940856" style="fill: #c44e52; stroke: #ffffff; stroke-width: 0.75"/>
     <use xlink:href="#m92e04566e3" x="570.092048" y="428.627421" style="fill: #c44e52; stroke: #ffffff; stroke-width: 0.75"/>
     <use xlink:href="#m92e04566e3" x="622.050765" y="418.839513" style="fill: #c44e52; stroke: #ffffff; stroke-width: 0.75"/>
     <use xlink:href="#m92e04566e3" x="674.009482" y="410.170223" style="fill: #c44e52; stroke: #ffffff; stroke-width: 0.75"/>
     <use xlink:href="#m92e04566e3" x="725.968199" y="398.984042" style="fill: #c44e52; stroke: #ffffff; stroke-width: 0.75"/>
     <use xlink:href="#m92e04566e3" x="777.926916" y="376.052372" style="fill: #c44e52; stroke: #ffffff; stroke-width: 0.75"/>
     <use xlink:href="#m92e04566e3" x="829.885633" y="330.189032" style="fill: #c44e52; stroke: #ffffff; stroke-width: 0.75"/>
     <use xlink:href="#m92e04566e3" x="881.84435" y="317.604579" style="fill: #c44e52; stroke: #ffffff; stroke-width: 0.75"/>
     <use xlink:href="#m92e04566e3" x="933.803067" y="291.317054" style="fill: #c44e52; stroke: #ffffff; stroke-width: 0.75"/>
     <use xlink:href="#m92e04566e3" x="985.761785" y="279.851219" style="fill: #c44e52; stroke: #ffffff; stroke-width: 0.75"/>
     <use xlink:href="#m92e04566e3" x="1037.720502" y="283.766382" style="fill: #c44e52; stroke: #ffffff; stroke-width: 0.75"/>
     <use xlink:href="#m92e04566e3" x="1089.679219" y="78.779624" style="fill: #c44e52; stroke: #ffffff; stroke-width: 0.75"/>
    </g>
   </g>
   <g id="line2d_31">
    <path d="M 102.463594 446.376187 
L 154.422311 459.349178 
L 206.381028 462.733436 
L 258.339745 459.913221 
L 310.298462 458.785135 
L 362.257179 457.93907 
L 414.215896 443.555971 
L 466.174613 442.145864 
L 518.133331 432.557131 
L 570.092048 427.198722 
L 622.050765 420.994248 
L 674.009482 410.277429 
L 725.968199 404.91902 
L 777.926916 376.716866 
L 829.885633 336.105764 
L 881.84435 327.363096 
L 933.803067 300.57105 
L 985.761785 282.239649 
L 1037.720502 280.265499 
L 1089.679219 53.520179 
" clip-path="url(#p4544deca4b)" style="fill: none; stroke: #8172b3; stroke-width: 1.5; stroke-linecap: round"/>
    <defs>
     <path id="mab344968e1" d="M 0 3 
C 0.795609 3 1.55874 2.683901 2.12132 2.12132 
C 2.683901 1.55874 3 0.795609 3 0 
C 3 -0.795609 2.683901 -1.55874 2.12132 -2.12132 
C 1.55874 -2.683901 0.795609 -3 0 -3 
C -0.795609 -3 -1.55874 -2.683901 -2.12132 -2.12132 
C -2.683901 -1.55874 -3 -0.795609 -3 0 
C -3 0.795609 -2.683901 1.55874 -2.12132 2.12132 
C -1.55874 2.683901 -0.795609 3 0 3 
z
" style="stroke: #ffffff; stroke-width: 0.75"/>
    </defs>
    <g clip-path="url(#p4544deca4b)">
     <use xlink:href="#mab344968e1" x="102.463594" y="446.376187" style="fill: #8172b3; stroke: #ffffff; stroke-width: 0.75"/>
     <use xlink:href="#mab344968e1" x="154.422311" y="459.349178" style="fill: #8172b3; stroke: #ffffff; stroke-width: 0.75"/>
     <use xlink:href="#mab344968e1" x="206.381028" y="462.733436" style="fill: #8172b3; stroke: #ffffff; stroke-width: 0.75"/>
     <use xlink:href="#mab344968e1" x="258.339745" y="459.913221" style="fill: #8172b3; stroke: #ffffff; stroke-width: 0.75"/>
     <use xlink:href="#mab344968e1" x="310.298462" y="458.785135" style="fill: #8172b3; stroke: #ffffff; stroke-width: 0.75"/>
     <use xlink:href="#mab344968e1" x="362.257179" y="457.93907" style="fill: #8172b3; stroke: #ffffff; stroke-width: 0.75"/>
     <use xlink:href="#mab344968e1" x="414.215896" y="443.555971" style="fill: #8172b3; stroke: #ffffff; stroke-width: 0.75"/>
     <use xlink:href="#mab344968e1" x="466.174613" y="442.145864" style="fill: #8172b3; stroke: #ffffff; stroke-width: 0.75"/>
     <use xlink:href="#mab344968e1" x="518.133331" y="432.557131" style="fill: #8172b3; stroke: #ffffff; stroke-width: 0.75"/>
     <use xlink:href="#mab344968e1" x="570.092048" y="427.198722" style="fill: #8172b3; stroke: #ffffff; stroke-width: 0.75"/>
     <use xlink:href="#mab344968e1" x="622.050765" y="420.994248" style="fill: #8172b3; stroke: #ffffff; stroke-width: 0.75"/>
     <use xlink:href="#mab344968e1" x="674.009482" y="410.277429" style="fill: #8172b3; stroke: #ffffff; stroke-width: 0.75"/>
     <use xlink:href="#mab344968e1" x="725.968199" y="404.91902" style="fill: #8172b3; stroke: #ffffff; stroke-width: 0.75"/>
     <use xlink:href="#mab344968e1" x="777.926916" y="376.716866" style="fill: #8172b3; stroke: #ffffff; stroke-width: 0.75"/>
     <use xlink:href="#mab344968e1" x="829.885633" y="336.105764" style="fill: #8172b3; stroke: #ffffff; stroke-width: 0.75"/>
     <use xlink:href="#mab344968e1" x="881.84435" y="327.363096" style="fill: #8172b3; stroke: #ffffff; stroke-width: 0.75"/>
     <use xlink:href="#mab344968e1" x="933.803067" y="300.57105" style="fill: #8172b3; stroke: #ffffff; stroke-width: 0.75"/>
     <use xlink:href="#mab344968e1" x="985.761785" y="282.239649" style="fill: #8172b3; stroke: #ffffff; stroke-width: 0.75"/>
     <use xlink:href="#mab344968e1" x="1037.720502" y="280.265499" style="fill: #8172b3; stroke: #ffffff; stroke-width: 0.75"/>
     <use xlink:href="#mab344968e1" x="1089.679219" y="53.520179" style="fill: #8172b3; stroke: #ffffff; stroke-width: 0.75"/>
    </g>
   </g>
   <g id="line2d_32">
    <path d="M 102.463594 443.448285 
L 154.422311 458.697423 
L 206.381028 460.512797 
L 258.339745 460.875871 
L 310.298462 455.792825 
L 362.257179 459.423573 
L 414.215896 440.543687 
L 466.174613 440.180612 
L 518.133331 432.919118 
L 570.092048 431.466819 
L 622.050765 423.842249 
L 674.009482 408.593111 
L 725.968199 405.688513 
L 777.926916 374.101012 
L 829.885633 334.888942 
L 881.84435 299.307619 
L 933.803067 268.809342 
L 985.761785 262.273997 
L 1037.720502 282.969256 
L 1089.679219 139.191665 
" clip-path="url(#p4544deca4b)" style="fill: none; stroke: #937860; stroke-width: 1.5; stroke-linecap: round"/>
    <defs>
     <path id="m5a788cf320" d="M 0 3 
C 0.795609 3 1.55874 2.683901 2.12132 2.12132 
C 2.683901 1.55874 3 0.795609 3 0 
C 3 -0.795609 2.683901 -1.55874 2.12132 -2.12132 
C 1.55874 -2.683901 0.795609 -3 0 -3 
C -0.795609 -3 -1.55874 -2.683901 -2.12132 -2.12132 
C -2.683901 -1.55874 -3 -0.795609 -3 0 
C -3 0.795609 -2.683901 1.55874 -2.12132 2.12132 
C -1.55874 2.683901 -0.795609 3 0 3 
z
" style="stroke: #ffffff; stroke-width: 0.75"/>
    </defs>
    <g clip-path="url(#p4544deca4b)">
     <use xlink:href="#m5a788cf320" x="102.463594" y="443.448285" style="fill: #937860; stroke: #ffffff; stroke-width: 0.75"/>
     <use xlink:href="#m5a788cf320" x="154.422311" y="458.697423" style="fill: #937860; stroke: #ffffff; stroke-width: 0.75"/>
     <use xlink:href="#m5a788cf320" x="206.381028" y="460.512797" style="fill: #937860; stroke: #ffffff; stroke-width: 0.75"/>
     <use xlink:href="#m5a788cf320" x="258.339745" y="460.875871" style="fill: #937860; stroke: #ffffff; stroke-width: 0.75"/>
     <use xlink:href="#m5a788cf320" x="310.298462" y="455.792825" style="fill: #937860; stroke: #ffffff; stroke-width: 0.75"/>
     <use xlink:href="#m5a788cf320" x="362.257179" y="459.423573" style="fill: #937860; stroke: #ffffff; stroke-width: 0.75"/>
     <use xlink:href="#m5a788cf320" x="414.215896" y="440.543687" style="fill: #937860; stroke: #ffffff; stroke-width: 0.75"/>
     <use xlink:href="#m5a788cf320" x="466.174613" y="440.180612" style="fill: #937860; stroke: #ffffff; stroke-width: 0.75"/>
     <use xlink:href="#m5a788cf320" x="518.133331" y="432.919118" style="fill: #937860; stroke: #ffffff; stroke-width: 0.75"/>
     <use xlink:href="#m5a788cf320" x="570.092048" y="431.466819" style="fill: #937860; stroke: #ffffff; stroke-width: 0.75"/>
     <use xlink:href="#m5a788cf320" x="622.050765" y="423.842249" style="fill: #937860; stroke: #ffffff; stroke-width: 0.75"/>
     <use xlink:href="#m5a788cf320" x="674.009482" y="408.593111" style="fill: #937860; stroke: #ffffff; stroke-width: 0.75"/>
     <use xlink:href="#m5a788cf320" x="725.968199" y="405.688513" style="fill: #937860; stroke: #ffffff; stroke-width: 0.75"/>
     <use xlink:href="#m5a788cf320" x="777.926916" y="374.101012" style="fill: #937860; stroke: #ffffff; stroke-width: 0.75"/>
     <use xlink:href="#m5a788cf320" x="829.885633" y="334.888942" style="fill: #937860; stroke: #ffffff; stroke-width: 0.75"/>
     <use xlink:href="#m5a788cf320" x="881.84435" y="299.307619" style="fill: #937860; stroke: #ffffff; stroke-width: 0.75"/>
     <use xlink:href="#m5a788cf320" x="933.803067" y="268.809342" style="fill: #937860; stroke: #ffffff; stroke-width: 0.75"/>
     <use xlink:href="#m5a788cf320" x="985.761785" y="262.273997" style="fill: #937860; stroke: #ffffff; stroke-width: 0.75"/>
     <use xlink:href="#m5a788cf320" x="1037.720502" y="282.969256" style="fill: #937860; stroke: #ffffff; stroke-width: 0.75"/>
     <use xlink:href="#m5a788cf320" x="1089.679219" y="139.191665" style="fill: #937860; stroke: #ffffff; stroke-width: 0.75"/>
    </g>
   </g>
   <g id="line2d_33"/>
   <g id="line2d_34"/>
   <g id="line2d_35"/>
   <g id="line2d_36"/>
   <g id="line2d_37"/>
   <g id="line2d_38"/>
   <g id="line2d_39">
    <path d="M 53.102812 384.176336 
L 1139.04 384.176336 
" clip-path="url(#p4544deca4b)" style="fill: none; stroke-dasharray: 3.7,1.6; stroke-dashoffset: 0; stroke: #000000"/>
   </g>
   <g id="patch_3">
    <path d="M 53.102812 483.432189 
L 53.102812 28.32 
" style="fill: none; stroke: #cccccc; stroke-width: 1.25; stroke-linejoin: miter; stroke-linecap: square"/>
   </g>
   <g id="patch_4">
    <path d="M 1139.04 483.432189 
L 1139.04 28.32 
" style="fill: none; stroke: #cccccc; stroke-width: 1.25; stroke-linejoin: miter; stroke-linecap: square"/>
   </g>
   <g id="patch_5">
    <path d="M 53.102812 483.432189 
L 1139.04 483.432189 
" style="fill: none; stroke: #cccccc; stroke-width: 1.25; stroke-linejoin: miter; stroke-linecap: square"/>
   </g>
   <g id="patch_6">
    <path d="M 53.102812 28.32 
L 1139.04 28.32 
" style="fill: none; stroke: #cccccc; stroke-width: 1.25; stroke-linejoin: miter; stroke-linecap: square"/>
   </g>
   <g id="text_29">
    <!-- Mean: 5.00 -->
    <g transform="translate(102.463594 381.773992) scale(0.1 -0.1)">
     <defs>
      <path id="DejaVuSans-30" d="M 628 4666 
L 1569 4666 
L 2759 1491 
L 3956 4666 
L 4897 4666 
L 4897 0 
L 4281 0 
L 4281 4097 
L 3078 897 
L 2444 897 
L 1241 4097 
L 1241 0 
L 628 0 
L 628 4666 
z
" transform="scale(0.015625)"/>
      <path id="DejaVuSans-1d" d="M 750 794 
L 1409 794 
L 1409 0 
L 750 0 
L 750 794 
z
M 750 3309 
L 1409 3309 
L 1409 2516 
L 750 2516 
L 750 3309 
z
" transform="scale(0.015625)"/>
      <path id="DejaVuSans-11" d="M 684 794 
L 1344 794 
L 1344 0 
L 684 0 
L 684 794 
z
" transform="scale(0.015625)"/>
     </defs>
     <use xlink:href="#DejaVuSans-30"/>
     <use xlink:href="#DejaVuSans-48" transform="translate(86.28125 0)"/>
     <use xlink:href="#DejaVuSans-44" transform="translate(147.8125 0)"/>
     <use xlink:href="#DejaVuSans-51" transform="translate(209.09375 0)"/>
     <use xlink:href="#DejaVuSans-1d" transform="translate(272.46875 0)"/>
     <use xlink:href="#DejaVuSans-3" transform="translate(306.15625 0)"/>
     <use xlink:href="#DejaVuSans-18" transform="translate(337.9375 0)"/>
     <use xlink:href="#DejaVuSans-11" transform="translate(401.5625 0)"/>
     <use xlink:href="#DejaVuSans-13" transform="translate(433.34375 0)"/>
     <use xlink:href="#DejaVuSans-13" transform="translate(496.96875 0)"/>
    </g>
   </g>
   <g id="text_30">
    <!-- Age Distribution of Deaths by Source and County -->
    <g style="fill: #262626" transform="translate(448.436719 22.32) scale(0.12 -0.12)">
     <defs>
      <path id="DejaVuSans-4c" d="M 603 3500 
L 1178 3500 
L 1178 0 
L 603 0 
L 603 3500 
z
M 603 4863 
L 1178 4863 
L 1178 4134 
L 603 4134 
L 603 4863 
z
" transform="scale(0.015625)"/>
      <path id="DejaVuSans-45" d="M 3116 1747 
Q 3116 2381 2855 2742 
Q 2594 3103 2138 3103 
Q 1681 3103 1420 2742 
Q 1159 2381 1159 1747 
Q 1159 1113 1420 752 
Q 1681 391 2138 391 
Q 2594 391 2855 752 
Q 3116 1113 3116 1747 
z
M 1159 2969 
Q 1341 3281 1617 3432 
Q 1894 3584 2278 3584 
Q 2916 3584 3314 3078 
Q 3713 2572 3713 1747 
Q 3713 922 3314 415 
Q 2916 -91 2278 -91 
Q 1894 -91 1617 61 
Q 1341 213 1159 525 
L 1159 0 
L 581 0 
L 581 4863 
L 1159 4863 
L 1159 2969 
z
" transform="scale(0.015625)"/>
      <path id="DejaVuSans-36" d="M 3425 4513 
L 3425 3897 
Q 3066 4069 2747 4153 
Q 2428 4238 2131 4238 
Q 1616 4238 1336 4038 
Q 1056 3838 1056 3469 
Q 1056 3159 1242 3001 
Q 1428 2844 1947 2747 
L 2328 2669 
Q 3034 2534 3370 2195 
Q 3706 1856 3706 1288 
Q 3706 609 3251 259 
Q 2797 -91 1919 -91 
Q 1588 -91 1214 -16 
Q 841 59 441 206 
L 441 856 
Q 825 641 1194 531 
Q 1563 422 1919 422 
Q 2459 422 2753 634 
Q 3047 847 3047 1241 
Q 3047 1584 2836 1778 
Q 2625 1972 2144 2069 
L 1759 2144 
Q 1053 2284 737 2584 
Q 422 2884 422 3419 
Q 422 4038 858 4394 
Q 1294 4750 2059 4750 
Q 2388 4750 2728 4690 
Q 3069 4631 3425 4513 
z
" transform="scale(0.015625)"/>
      <path id="DejaVuSans-47" d="M 2906 2969 
L 2906 4863 
L 3481 4863 
L 3481 0 
L 2906 0 
L 2906 525 
Q 2725 213 2448 61 
Q 2172 -91 1784 -91 
Q 1150 -91 751 415 
Q 353 922 353 1747 
Q 353 2572 751 3078 
Q 1150 3584 1784 3584 
Q 2172 3584 2448 3432 
Q 2725 3281 2906 2969 
z
M 947 1747 
Q 947 1113 1208 752 
Q 1469 391 1925 391 
Q 2381 391 2643 752 
Q 2906 1113 2906 1747 
Q 2906 2381 2643 2742 
Q 2381 3103 1925 3103 
Q 1469 3103 1208 2742 
Q 947 2381 947 1747 
z
" transform="scale(0.015625)"/>
      <path id="DejaVuSans-26" d="M 4122 4306 
L 4122 3641 
Q 3803 3938 3442 4084 
Q 3081 4231 2675 4231 
Q 1875 4231 1450 3742 
Q 1025 3253 1025 2328 
Q 1025 1406 1450 917 
Q 1875 428 2675 428 
Q 3081 428 3442 575 
Q 3803 722 4122 1019 
L 4122 359 
Q 3791 134 3420 21 
Q 3050 -91 2638 -91 
Q 1578 -91 968 557 
Q 359 1206 359 2328 
Q 359 3453 968 4101 
Q 1578 4750 2638 4750 
Q 3056 4750 3426 4639 
Q 3797 4528 4122 4306 
z
" transform="scale(0.015625)"/>
     </defs>
     <use xlink:href="#DejaVuSans-24"/>
     <use xlink:href="#DejaVuSans-4a" transform="translate(68.40625 0)"/>
     <use xlink:href="#DejaVuSans-48" transform="translate(131.890625 0)"/>
     <use xlink:href="#DejaVuSans-3" transform="translate(193.421875 0)"/>
     <use xlink:href="#DejaVuSans-27" transform="translate(225.203125 0)"/>
     <use xlink:href="#DejaVuSans-4c" transform="translate(302.203125 0)"/>
     <use xlink:href="#DejaVuSans-56" transform="translate(329.984375 0)"/>
     <use xlink:href="#DejaVuSans-57" transform="translate(382.078125 0)"/>
     <use xlink:href="#DejaVuSans-55" transform="translate(421.28125 0)"/>
     <use xlink:href="#DejaVuSans-4c" transform="translate(462.390625 0)"/>
     <use xlink:href="#DejaVuSans-45" transform="translate(490.171875 0)"/>
     <use xlink:href="#DejaVuSans-58" transform="translate(553.65625 0)"/>
     <use xlink:href="#DejaVuSans-57" transform="translate(617.03125 0)"/>
     <use xlink:href="#DejaVuSans-4c" transform="translate(656.234375 0)"/>
     <use xlink:href="#DejaVuSans-52" transform="translate(684.015625 0)"/>
     <use xlink:href="#DejaVuSans-51" transform="translate(745.203125 0)"/>
     <use xlink:href="#DejaVuSans-3" transform="translate(808.578125 0)"/>
     <use xlink:href="#DejaVuSans-52" transform="translate(840.359375 0)"/>
     <use xlink:href="#DejaVuSans-49" transform="translate(901.546875 0)"/>
     <use xlink:href="#DejaVuSans-3" transform="translate(936.75 0)"/>
     <use xlink:href="#DejaVuSans-27" transform="translate(968.53125 0)"/>
     <use xlink:href="#DejaVuSans-48" transform="translate(1045.53125 0)"/>
     <use xlink:href="#DejaVuSans-44" transform="translate(1107.0625 0)"/>
     <use xlink:href="#DejaVuSans-57" transform="translate(1168.34375 0)"/>
     <use xlink:href="#DejaVuSans-4b" transform="translate(1207.546875 0)"/>
     <use xlink:href="#DejaVuSans-56" transform="translate(1270.921875 0)"/>
     <use xlink:href="#DejaVuSans-3" transform="translate(1323.015625 0)"/>
     <use xlink:href="#DejaVuSans-45" transform="translate(1354.796875 0)"/>
     <use xlink:href="#DejaVuSans-5c" transform="translate(1418.28125 0)"/>
     <use xlink:href="#DejaVuSans-3" transform="translate(1477.46875 0)"/>
     <use xlink:href="#DejaVuSans-36" transform="translate(1509.25 0)"/>
     <use xlink:href="#DejaVuSans-52" transform="translate(1572.734375 0)"/>
     <use xlink:href="#DejaVuSans-58" transform="translate(1633.921875 0)"/>
     <use xlink:href="#DejaVuSans-55" transform="translate(1697.296875 0)"/>
     <use xlink:href="#DejaVuSans-46" transform="translate(1736.203125 0)"/>
     <use xlink:href="#DejaVuSans-48" transform="translate(1791.1875 0)"/>
     <use xlink:href="#DejaVuSans-3" transform="translate(1852.71875 0)"/>
     <use xlink:href="#DejaVuSans-44" transform="translate(1884.5 0)"/>
     <use xlink:href="#DejaVuSans-51" transform="translate(1945.78125 0)"/>
     <use xlink:href="#DejaVuSans-47" transform="translate(2009.15625 0)"/>
     <use xlink:href="#DejaVuSans-3" transform="translate(2072.640625 0)"/>
     <use xlink:href="#DejaVuSans-26" transform="translate(2104.421875 0)"/>
     <use xlink:href="#DejaVuSans-52" transform="translate(2174.25 0)"/>
     <use xlink:href="#DejaVuSans-58" transform="translate(2235.4375 0)"/>
     <use xlink:href="#DejaVuSans-51" transform="translate(2298.8125 0)"/>
     <use xlink:href="#DejaVuSans-57" transform="translate(2362.1875 0)"/>
     <use xlink:href="#DejaVuSans-5c" transform="translate(2401.390625 0)"/>
    </g>
   </g>
   <g id="legend_1">
    <g id="patch_7">
     <path d="M 60.802813 153.626094 
L 189.135 153.626094 
Q 191.335 153.626094 191.335 151.426094 
L 191.335 36.02 
Q 191.335 33.82 189.135 33.82 
L 60.802813 33.82 
Q 58.602812 33.82 58.602812 36.02 
L 58.602812 151.426094 
Q 58.602812 153.626094 60.802813 153.626094 
z
" style="fill: #ffffff; opacity: 0.8; stroke: #cccccc; stroke-linejoin: miter"/>
    </g>
    <g id="text_31">
     <!-- Group -->
     <g style="fill: #262626" transform="translate(106.702656 47.338125) scale(0.12 -0.12)">
      <use xlink:href="#DejaVuSans-2a"/>
      <use xlink:href="#DejaVuSans-55" transform="translate(77.484375 0)"/>
      <use xlink:href="#DejaVuSans-52" transform="translate(116.390625 0)"/>
      <use xlink:href="#DejaVuSans-58" transform="translate(177.578125 0)"/>
      <use xlink:href="#DejaVuSans-53" transform="translate(240.953125 0)"/>
     </g>
    </g>
    <g id="line2d_40">
     <path d="M 63.002812 60.229219 
L 74.002813 60.229219 
L 85.002813 60.229219 
" style="fill: none; stroke: #4c72b0; stroke-width: 1.5; stroke-linecap: round"/>
     <g>
      <use xlink:href="#mf2ac26e534" x="74.002813" y="60.229219" style="fill: #4c72b0; stroke: #ffffff; stroke-width: 0.75"/>
     </g>
    </g>
    <g id="text_32">
     <!-- Georgia - DeKalb -->
     <g style="fill: #262626" transform="translate(93.802813 64.079219) scale(0.11 -0.11)">
      <defs>
       <path id="DejaVuSans-2e" d="M 628 4666 
L 1259 4666 
L 1259 2694 
L 3353 4666 
L 4166 4666 
L 1850 2491 
L 4331 0 
L 3500 0 
L 1259 2247 
L 1259 0 
L 628 0 
L 628 4666 
z
" transform="scale(0.015625)"/>
       <path id="DejaVuSans-4f" d="M 603 4863 
L 1178 4863 
L 1178 0 
L 603 0 
L 603 4863 
z
" transform="scale(0.015625)"/>
      </defs>
      <use xlink:href="#DejaVuSans-2a"/>
      <use xlink:href="#DejaVuSans-48" transform="translate(77.484375 0)"/>
      <use xlink:href="#DejaVuSans-52" transform="translate(139.015625 0)"/>
      <use xlink:href="#DejaVuSans-55" transform="translate(200.203125 0)"/>
      <use xlink:href="#DejaVuSans-4a" transform="translate(239.5625 0)"/>
      <use xlink:href="#DejaVuSans-4c" transform="translate(303.046875 0)"/>
      <use xlink:href="#DejaVuSans-44" transform="translate(330.828125 0)"/>
      <use xlink:href="#DejaVuSans-3" transform="translate(392.109375 0)"/>
      <use xlink:href="#DejaVuSans-10" transform="translate(423.890625 0)"/>
      <use xlink:href="#DejaVuSans-3" transform="translate(459.96875 0)"/>
      <use xlink:href="#DejaVuSans-27" transform="translate(491.75 0)"/>
      <use xlink:href="#DejaVuSans-48" transform="translate(568.75 0)"/>
      <use xlink:href="#DejaVuSans-2e" transform="translate(630.28125 0)"/>
      <use xlink:href="#DejaVuSans-44" transform="translate(694.109375 0)"/>
      <use xlink:href="#DejaVuSans-4f" transform="translate(755.390625 0)"/>
      <use xlink:href="#DejaVuSans-45" transform="translate(783.171875 0)"/>
     </g>
    </g>
    <g id="line2d_41">
     <path d="M 63.002812 76.730078 
L 74.002813 76.730078 
L 85.002813 76.730078 
" style="fill: none; stroke: #dd8452; stroke-width: 1.5; stroke-linecap: round"/>
     <g>
      <use xlink:href="#m357ae9919f" x="74.002813" y="76.730078" style="fill: #dd8452; stroke: #ffffff; stroke-width: 0.75"/>
     </g>
    </g>
    <g id="text_33">
     <!-- OASIS - Fulton -->
     <g style="fill: #262626" transform="translate(93.802813 80.580078) scale(0.11 -0.11)">
      <defs>
       <path id="DejaVuSans-32" d="M 2522 4238 
Q 1834 4238 1429 3725 
Q 1025 3213 1025 2328 
Q 1025 1447 1429 934 
Q 1834 422 2522 422 
Q 3209 422 3611 934 
Q 4013 1447 4013 2328 
Q 4013 3213 3611 3725 
Q 3209 4238 2522 4238 
z
M 2522 4750 
Q 3503 4750 4090 4092 
Q 4678 3434 4678 2328 
Q 4678 1225 4090 567 
Q 3503 -91 2522 -91 
Q 1538 -91 948 565 
Q 359 1222 359 2328 
Q 359 3434 948 4092 
Q 1538 4750 2522 4750 
z
" transform="scale(0.015625)"/>
       <path id="DejaVuSans-2c" d="M 628 4666 
L 1259 4666 
L 1259 0 
L 628 0 
L 628 4666 
z
" transform="scale(0.015625)"/>
       <path id="DejaVuSans-29" d="M 628 4666 
L 3309 4666 
L 3309 4134 
L 1259 4134 
L 1259 2759 
L 3109 2759 
L 3109 2228 
L 1259 2228 
L 1259 0 
L 628 0 
L 628 4666 
z
" transform="scale(0.015625)"/>
      </defs>
      <use xlink:href="#DejaVuSans-32"/>
      <use xlink:href="#DejaVuSans-24" transform="translate(76.96875 0)"/>
      <use xlink:href="#DejaVuSans-36" transform="translate(145.375 0)"/>
      <use xlink:href="#DejaVuSans-2c" transform="translate(208.859375 0)"/>
      <use xlink:href="#DejaVuSans-36" transform="translate(238.359375 0)"/>
      <use xlink:href="#DejaVuSans-3" transform="translate(301.84375 0)"/>
      <use xlink:href="#DejaVuSans-10" transform="translate(333.625 0)"/>
      <use xlink:href="#DejaVuSans-3" transform="translate(369.703125 0)"/>
      <use xlink:href="#DejaVuSans-29" transform="translate(401.484375 0)"/>
      <use xlink:href="#DejaVuSans-58" transform="translate(453.53125 0)"/>
      <use xlink:href="#DejaVuSans-4f" transform="translate(516.90625 0)"/>
      <use xlink:href="#DejaVuSans-57" transform="translate(544.6875 0)"/>
      <use xlink:href="#DejaVuSans-52" transform="translate(583.890625 0)"/>
      <use xlink:href="#DejaVuSans-51" transform="translate(645.078125 0)"/>
     </g>
    </g>
    <g id="line2d_42">
     <path d="M 63.002812 93.230938 
L 74.002813 93.230938 
L 85.002813 93.230938 
" style="fill: none; stroke: #55a868; stroke-width: 1.5; stroke-linecap: round"/>
     <g>
      <use xlink:href="#mc2dd917e6b" x="74.002813" y="93.230938" style="fill: #55a868; stroke: #ffffff; stroke-width: 0.75"/>
     </g>
    </g>
    <g id="text_34">
     <!-- OASIS - DeKalb -->
     <g style="fill: #262626" transform="translate(93.802813 97.080938) scale(0.11 -0.11)">
      <use xlink:href="#DejaVuSans-32"/>
      <use xlink:href="#DejaVuSans-24" transform="translate(76.96875 0)"/>
      <use xlink:href="#DejaVuSans-36" transform="translate(145.375 0)"/>
      <use xlink:href="#DejaVuSans-2c" transform="translate(208.859375 0)"/>
      <use xlink:href="#DejaVuSans-36" transform="translate(238.359375 0)"/>
      <use xlink:href="#DejaVuSans-3" transform="translate(301.84375 0)"/>
      <use xlink:href="#DejaVuSans-10" transform="translate(333.625 0)"/>
      <use xlink:href="#DejaVuSans-3" transform="translate(369.703125 0)"/>
      <use xlink:href="#DejaVuSans-27" transform="translate(401.484375 0)"/>
      <use xlink:href="#DejaVuSans-48" transform="translate(478.484375 0)"/>
      <use xlink:href="#DejaVuSans-2e" transform="translate(540.015625 0)"/>
      <use xlink:href="#DejaVuSans-44" transform="translate(603.84375 0)"/>
      <use xlink:href="#DejaVuSans-4f" transform="translate(665.125 0)"/>
      <use xlink:href="#DejaVuSans-45" transform="translate(692.90625 0)"/>
     </g>
    </g>
    <g id="line2d_43">
     <path d="M 63.002812 109.731797 
L 74.002813 109.731797 
L 85.002813 109.731797 
" style="fill: none; stroke: #c44e52; stroke-width: 1.5; stroke-linecap: round"/>
     <g>
      <use xlink:href="#m92e04566e3" x="74.002813" y="109.731797" style="fill: #c44e52; stroke: #ffffff; stroke-width: 0.75"/>
     </g>
    </g>
    <g id="text_35">
     <!-- NCHS - Fulton -->
     <g style="fill: #262626" transform="translate(93.802813 113.581797) scale(0.11 -0.11)">
      <defs>
       <path id="DejaVuSans-31" d="M 628 4666 
L 1478 4666 
L 3547 763 
L 3547 4666 
L 4159 4666 
L 4159 0 
L 3309 0 
L 1241 3903 
L 1241 0 
L 628 0 
L 628 4666 
z
" transform="scale(0.015625)"/>
       <path id="DejaVuSans-2b" d="M 628 4666 
L 1259 4666 
L 1259 2753 
L 3553 2753 
L 3553 4666 
L 4184 4666 
L 4184 0 
L 3553 0 
L 3553 2222 
L 1259 2222 
L 1259 0 
L 628 0 
L 628 4666 
z
" transform="scale(0.015625)"/>
      </defs>
      <use xlink:href="#DejaVuSans-31"/>
      <use xlink:href="#DejaVuSans-26" transform="translate(74.8125 0)"/>
      <use xlink:href="#DejaVuSans-2b" transform="translate(144.640625 0)"/>
      <use xlink:href="#DejaVuSans-36" transform="translate(219.84375 0)"/>
      <use xlink:href="#DejaVuSans-3" transform="translate(283.328125 0)"/>
      <use xlink:href="#DejaVuSans-10" transform="translate(315.109375 0)"/>
      <use xlink:href="#DejaVuSans-3" transform="translate(351.1875 0)"/>
      <use xlink:href="#DejaVuSans-29" transform="translate(382.96875 0)"/>
      <use xlink:href="#DejaVuSans-58" transform="translate(435.015625 0)"/>
      <use xlink:href="#DejaVuSans-4f" transform="translate(498.390625 0)"/>
      <use xlink:href="#DejaVuSans-57" transform="translate(526.171875 0)"/>
      <use xlink:href="#DejaVuSans-52" transform="translate(565.375 0)"/>
      <use xlink:href="#DejaVuSans-51" transform="translate(626.5625 0)"/>
     </g>
    </g>
    <g id="line2d_44">
     <path d="M 63.002812 126.232656 
L 74.002813 126.232656 
L 85.002813 126.232656 
" style="fill: none; stroke: #8172b3; stroke-width: 1.5; stroke-linecap: round"/>
     <g>
      <use xlink:href="#mab344968e1" x="74.002813" y="126.232656" style="fill: #8172b3; stroke: #ffffff; stroke-width: 0.75"/>
     </g>
    </g>
    <g id="text_36">
     <!-- Georgia - Fulton -->
     <g style="fill: #262626" transform="translate(93.802813 130.082656) scale(0.11 -0.11)">
      <use xlink:href="#DejaVuSans-2a"/>
      <use xlink:href="#DejaVuSans-48" transform="translate(77.484375 0)"/>
      <use xlink:href="#DejaVuSans-52" transform="translate(139.015625 0)"/>
      <use xlink:href="#DejaVuSans-55" transform="translate(200.203125 0)"/>
      <use xlink:href="#DejaVuSans-4a" transform="translate(239.5625 0)"/>
      <use xlink:href="#DejaVuSans-4c" transform="translate(303.046875 0)"/>
      <use xlink:href="#DejaVuSans-44" transform="translate(330.828125 0)"/>
      <use xlink:href="#DejaVuSans-3" transform="translate(392.109375 0)"/>
      <use xlink:href="#DejaVuSans-10" transform="translate(423.890625 0)"/>
      <use xlink:href="#DejaVuSans-3" transform="translate(459.96875 0)"/>
      <use xlink:href="#DejaVuSans-29" transform="translate(491.75 0)"/>
      <use xlink:href="#DejaVuSans-58" transform="translate(543.796875 0)"/>
      <use xlink:href="#DejaVuSans-4f" transform="translate(607.171875 0)"/>
      <use xlink:href="#DejaVuSans-57" transform="translate(634.953125 0)"/>
      <use xlink:href="#DejaVuSans-52" transform="translate(674.15625 0)"/>
      <use xlink:href="#DejaVuSans-51" transform="translate(735.34375 0)"/>
     </g>
    </g>
    <g id="line2d_45">
     <path d="M 63.002812 142.733516 
L 74.002813 142.733516 
L 85.002813 142.733516 
" style="fill: none; stroke: #937860; stroke-width: 1.5; stroke-linecap: round"/>
     <g>
      <use xlink:href="#m5a788cf320" x="74.002813" y="142.733516" style="fill: #937860; stroke: #ffffff; stroke-width: 0.75"/>
     </g>
    </g>
    <g id="text_37">
     <!-- NCHS - DeKalb -->
     <g style="fill: #262626" transform="translate(93.802813 146.583516) scale(0.11 -0.11)">
      <use xlink:href="#DejaVuSans-31"/>
      <use xlink:href="#DejaVuSans-26" transform="translate(74.8125 0)"/>
      <use xlink:href="#DejaVuSans-2b" transform="translate(144.640625 0)"/>
      <use xlink:href="#DejaVuSans-36" transform="translate(219.84375 0)"/>
      <use xlink:href="#DejaVuSans-3" transform="translate(283.328125 0)"/>
      <use xlink:href="#DejaVuSans-10" transform="translate(315.109375 0)"/>
      <use xlink:href="#DejaVuSans-3" transform="translate(351.1875 0)"/>
      <use xlink:href="#DejaVuSans-27" transform="translate(382.96875 0)"/>
      <use xlink:href="#DejaVuSans-48" transform="translate(459.96875 0)"/>
      <use xlink:href="#DejaVuSans-2e" transform="translate(521.5 0)"/>
      <use xlink:href="#DejaVuSans-44" transform="translate(585.328125 0)"/>
      <use xlink:href="#DejaVuSans-4f" transform="translate(646.609375 0)"/>
      <use xlink:href="#DejaVuSans-45" transform="translate(674.390625 0)"/>
     </g>
    </g>
   </g>
  </g>
 </g>
 <defs>
  <clipPath id="p4544deca4b">
   <rect x="53.102812" y="28.32" width="1085.937187" height="455.112189"/>
  </clipPath>
 </defs>
</svg>
