<?xml version="1.0" encoding="utf-8" standalone="no"?>
<!DOCTYPE svg PUBLIC "-//W3C//DTD SVG 1.1//EN"
  "http://www.w3.org/Graphics/SVG/1.1/DTD/svg11.dtd">
<svg xmlns:xlink="http://www.w3.org/1999/xlink" width="1008pt" height="576pt" viewBox="0 0 1008 576" xmlns="http://www.w3.org/2000/svg" version="1.1">
 <metadata>
  <rdf:RDF xmlns:dc="http://purl.org/dc/elements/1.1/" xmlns:cc="http://creativecommons.org/ns#" xmlns:rdf="http://www.w3.org/1999/02/22-rdf-syntax-ns#">
   <cc:Work>
    <dc:type rdf:resource="http://purl.org/dc/dcmitype/StillImage"/>
    <dc:date>2026-06-18T16:49:03.553215</dc:date>
    <dc:format>image/svg+xml</dc:format>
    <dc:creator>
     <cc:Agent>
      <dc:title>Matplotlib v3.11.0, https://matplotlib.org/</dc:title>
     </cc:Agent>
    </dc:creator>
   </cc:Work>
  </rdf:RDF>
 </metadata>
 <defs>
  <style type="text/css">*{stroke-linejoin: round; stroke-linecap: butt}</style>
 </defs>
 <g id="figure_1">
  <g id="patch_1">
   <path d="M 0 576 
L 1008 576 
L 1008 0 
L 0 0 
z
" style="fill: #ffffff"/>
  </g>
  <g id="axes_1">
   <g id="patch_2">
    <path d="M 337.502812 526.297187 
L 995.04 526.297187 
L 995.04 47.664 
L 337.502812 47.664 
z
" style="fill: #ffffff"/>
   </g>
   <g id="matplotlib.axis_1">
    <g id="xtick_1">
     <g id="line2d_1">
      <path d="M 337.502812 526.297187 
L 337.502812 47.664 
" clip-path="url(#p68320ace97)" style="fill: none; stroke: #cccccc; stroke-linecap: round"/>
     </g>
     <g id="text_1">
      <!-- 0 -->
      <g style="fill: #262626" transform="translate(334.003437 544.154609) scale(0.11 -0.11)">
       <defs>
        <path id="DejaVuSans-13" d="M 2034 4250 
Q 1547 4250 1301 3770 
Q 1056 3291 1056 2328 
Q 1056 1369 1301 889 
Q 1547 409 2034 409 
Q 2525 409 2770 889 
Q 3016 1369 3016 2328 
Q 3016 3291 2770 3770 
Q 2525 4250 2034 4250 
z
M 2034 4750 
Q 2819 4750 3233 4129 
Q 3647 3509 3647 2328 
Q 3647 1150 3233 529 
Q 2819 -91 2034 -91 
Q 1250 -91 836 529 
Q 422 1150 422 2328 
Q 422 3509 836 4129 
Q 1250 4750 2034 4750 
z
" transform="scale(0.015625)"/>
       </defs>
       <use xlink:href="#DejaVuSans-13"/>
      </g>
     </g>
    </g>
    <g id="xtick_2">
     <g id="line2d_2">
      <path d="M 411.626448 526.297187 
L 411.626448 47.664 
" clip-path="url(#p68320ace97)" style="fill: none; stroke: #cccccc; stroke-linecap: round"/>
     </g>
     <g id="text_2">
      <!-- 1 -->
      <g style="fill: #262626" transform="translate(408.127073 544.154609) scale(0.11 -0.11)">
       <defs>
        <path id="DejaVuSans-14" d="M 794 531 
L 1825 531 
L 1825 4091 
L 703 3866 
L 703 4441 
L 1819 4666 
L 2450 4666 
L 2450 531 
L 3481 531 
L 3481 0 
L 794 0 
L 794 531 
z
" transform="scale(0.015625)"/>
       </defs>
       <use xlink:href="#DejaVuSans-14"/>
      </g>
     </g>
    </g>
    <g id="xtick_3">
     <g id="line2d_3">
      <path d="M 485.750083 526.297187 
L 485.750083 47.664 
" clip-path="url(#p68320ace97)" style="fill: none; stroke: #cccccc; stroke-linecap: round"/>
     </g>
     <g id="text_3">
      <!-- 2 -->
      <g style="fill: #262626" transform="translate(482.250708 544.154609) scale(0.11 -0.11)">
       <defs>
        <path id="DejaVuSans-15" d="M 1228 531 
L 3431 531 
L 3431 0 
L 469 0 
L 469 531 
Q 828 903 1448 1529 
Q 2069 2156 2228 2338 
Q 2531 2678 2651 2914 
Q 2772 3150 2772 3378 
Q 2772 3750 2511 3984 
Q 2250 4219 1831 4219 
Q 1534 4219 1204 4116 
Q 875 4013 500 3803 
L 500 4441 
Q 881 4594 1212 4672 
Q 1544 4750 1819 4750 
Q 2544 4750 2975 4387 
Q 3406 4025 3406 3419 
Q 3406 3131 3298 2873 
Q 3191 2616 2906 2266 
Q 2828 2175 2409 1742 
Q 1991 1309 1228 531 
z
" transform="scale(0.015625)"/>
       </defs>
       <use xlink:href="#DejaVuSans-15"/>
      </g>
     </g>
    </g>
    <g id="xtick_4">
     <g id="line2d_4">
      <path d="M 559.873719 526.297187 
L 559.873719 47.664 
" clip-path="url(#p68320ace97)" style="fill: none; stroke: #cccccc; stroke-linecap: round"/>
     </g>
     <g id="text_4">
      <!-- 3 -->
      <g style="fill: #262626" transform="translate(556.374344 544.154609) scale(0.11 -0.11)">
       <defs>
        <path id="DejaVuSans-16" d="M 2597 2516 
Q 3050 2419 3304 2112 
Q 3559 1806 3559 1356 
Q 3559 666 3084 287 
Q 2609 -91 1734 -91 
Q 1441 -91 1130 -33 
Q 819 25 488 141 
L 488 750 
Q 750 597 1062 519 
Q 1375 441 1716 441 
Q 2309 441 2620 675 
Q 2931 909 2931 1356 
Q 2931 1769 2642 2001 
Q 2353 2234 1838 2234 
L 1294 2234 
L 1294 2753 
L 1863 2753 
Q 2328 2753 2575 2939 
Q 2822 3125 2822 3475 
Q 2822 3834 2567 4026 
Q 2313 4219 1838 4219 
Q 1578 4219 1281 4162 
Q 984 4106 628 3988 
L 628 4550 
Q 988 4650 1302 4700 
Q 1616 4750 1894 4750 
Q 2613 4750 3031 4423 
Q 3450 4097 3450 3541 
Q 3450 3153 3228 2886 
Q 3006 2619 2597 2516 
z
" transform="scale(0.015625)"/>
       </defs>
       <use xlink:href="#DejaVuSans-16"/>
      </g>
     </g>
    </g>
    <g id="xtick_5">
     <g id="line2d_5">
      <path d="M 633.997354 526.297187 
L 633.997354 47.664 
" clip-path="url(#p68320ace97)" style="fill: none; stroke: #cccccc; stroke-linecap: round"/>
     </g>
     <g id="text_5">
      <!-- 4 -->
      <g style="fill: #262626" transform="translate(630.497979 544.154609) scale(0.11 -0.11)">
       <defs>
        <path id="DejaVuSans-17" d="M 2419 4116 
L 825 1625 
L 2419 1625 
L 2419 4116 
z
M 2253 4666 
L 3047 4666 
L 3047 1625 
L 3713 1625 
L 3713 1100 
L 3047 1100 
L 3047 0 
L 2419 0 
L 2419 1100 
L 313 1100 
L 313 1709 
L 2253 4666 
z
" transform="scale(0.015625)"/>
       </defs>
       <use xlink:href="#DejaVuSans-17"/>
      </g>
     </g>
    </g>
    <g id="xtick_6">
     <g id="line2d_6">
      <path d="M 708.12099 526.297187 
L 708.12099 47.664 
" clip-path="url(#p68320ace97)" style="fill: none; stroke: #cccccc; stroke-linecap: round"/>
     </g>
     <g id="text_6">
      <!-- 5 -->
      <g style="fill: #262626" transform="translate(704.621615 544.154609) scale(0.11 -0.11)">
       <defs>
        <path id="DejaVuSans-18" d="M 691 4666 
L 3169 4666 
L 3169 4134 
L 1269 4134 
L 1269 2991 
Q 1406 3038 1543 3061 
Q 1681 3084 1819 3084 
Q 2600 3084 3056 2656 
Q 3513 2228 3513 1497 
Q 3513 744 3044 326 
Q 2575 -91 1722 -91 
Q 1428 -91 1123 -41 
Q 819 9 494 109 
L 494 744 
Q 775 591 1075 516 
Q 1375 441 1709 441 
Q 2250 441 2565 725 
Q 2881 1009 2881 1497 
Q 2881 1984 2565 2268 
Q 2250 2553 1709 2553 
Q 1456 2553 1204 2497 
Q 953 2441 691 2322 
L 691 4666 
z
" transform="scale(0.015625)"/>
       </defs>
       <use xlink:href="#DejaVuSans-18"/>
      </g>
     </g>
    </g>
    <g id="xtick_7">
     <g id="line2d_7">
      <path d="M 782.244625 526.297187 
L 782.244625 47.664 
" clip-path="url(#p68320ace97)" style="fill: none; stroke: #cccccc; stroke-linecap: round"/>
     </g>
     <g id="text_7">
      <!-- 6 -->
      <g style="fill: #262626" transform="translate(778.74525 544.154609) scale(0.11 -0.11)">
       <defs>
        <path id="DejaVuSans-19" d="M 2113 2584 
Q 1688 2584 1439 2293 
Q 1191 2003 1191 1497 
Q 1191 994 1439 701 
Q 1688 409 2113 409 
Q 2538 409 2786 701 
Q 3034 994 3034 1497 
Q 3034 2003 2786 2293 
Q 2538 2584 2113 2584 
z
M 3366 4563 
L 3366 3988 
Q 3128 4100 2886 4159 
Q 2644 4219 2406 4219 
Q 1781 4219 1451 3797 
Q 1122 3375 1075 2522 
Q 1259 2794 1537 2939 
Q 1816 3084 2150 3084 
Q 2853 3084 3261 2657 
Q 3669 2231 3669 1497 
Q 3669 778 3244 343 
Q 2819 -91 2113 -91 
Q 1303 -91 875 529 
Q 447 1150 447 2328 
Q 447 3434 972 4092 
Q 1497 4750 2381 4750 
Q 2619 4750 2861 4703 
Q 3103 4656 3366 4563 
z
" transform="scale(0.015625)"/>
       </defs>
       <use xlink:href="#DejaVuSans-19"/>
      </g>
     </g>
    </g>
    <g id="xtick_8">
     <g id="line2d_8">
      <path d="M 856.368261 526.297187 
L 856.368261 47.664 
" clip-path="url(#p68320ace97)" style="fill: none; stroke: #cccccc; stroke-linecap: round"/>
     </g>
     <g id="text_8">
      <!-- 7 -->
      <g style="fill: #262626" transform="translate(852.868886 544.154609) scale(0.11 -0.11)">
       <defs>
        <path id="DejaVuSans-1a" d="M 525 4666 
L 3525 4666 
L 3525 4397 
L 1831 0 
L 1172 0 
L 2766 4134 
L 525 4134 
L 525 4666 
z
" transform="scale(0.015625)"/>
       </defs>
       <use xlink:href="#DejaVuSans-1a"/>
      </g>
     </g>
    </g>
    <g id="xtick_9">
     <g id="line2d_9">
      <path d="M 930.491896 526.297187 
L 930.491896 47.664 
" clip-path="url(#p68320ace97)" style="fill: none; stroke: #cccccc; stroke-linecap: round"/>
     </g>
     <g id="text_9">
      <!-- 8 -->
      <g style="fill: #262626" transform="translate(926.992521 544.154609) scale(0.11 -0.11)">
       <defs>
        <path id="DejaVuSans-1b" d="M 2034 2216 
Q 1584 2216 1326 1975 
Q 1069 1734 1069 1313 
Q 1069 891 1326 650 
Q 1584 409 2034 409 
Q 2484 409 2743 651 
Q 3003 894 3003 1313 
Q 3003 1734 2745 1975 
Q 2488 2216 2034 2216 
z
M 1403 2484 
Q 997 2584 770 2862 
Q 544 3141 544 3541 
Q 544 4100 942 4425 
Q 1341 4750 2034 4750 
Q 2731 4750 3128 4425 
Q 3525 4100 3525 3541 
Q 3525 3141 3298 2862 
Q 3072 2584 2669 2484 
Q 3125 2378 3379 2068 
Q 3634 1759 3634 1313 
Q 3634 634 3220 271 
Q 2806 -91 2034 -91 
Q 1263 -91 848 271 
Q 434 634 434 1313 
Q 434 1759 690 2068 
Q 947 2378 1403 2484 
z
M 1172 3481 
Q 1172 3119 1398 2916 
Q 1625 2713 2034 2713 
Q 2441 2713 2670 2916 
Q 2900 3119 2900 3481 
Q 2900 3844 2670 4047 
Q 2441 4250 2034 4250 
Q 1625 4250 1398 4047 
Q 1172 3844 1172 3481 
z
" transform="scale(0.015625)"/>
       </defs>
       <use xlink:href="#DejaVuSans-1b"/>
      </g>
     </g>
    </g>
    <g id="text_10">
     <!-- Percent of Deaths -->
     <g style="fill: #262626" transform="translate(612.829219 559.915313) scale(0.12 -0.12)">
      <defs>
       <path id="DejaVuSans-33" d="M 1259 4147 
L 1259 2394 
L 2053 2394 
Q 2494 2394 2734 2622 
Q 2975 2850 2975 3272 
Q 2975 3691 2734 3919 
Q 2494 4147 2053 4147 
L 1259 4147 
z
M 628 4666 
L 2053 4666 
Q 2838 4666 3239 4311 
Q 3641 3956 3641 3272 
Q 3641 2581 3239 2228 
Q 2838 1875 2053 1875 
L 1259 1875 
L 1259 0 
L 628 0 
L 628 4666 
z
" transform="scale(0.015625)"/>
       <path id="DejaVuSans-48" d="M 3597 1894 
L 3597 1613 
L 953 1613 
Q 991 1019 1311 708 
Q 1631 397 2203 397 
Q 2534 397 2845 478 
Q 3156 559 3463 722 
L 3463 178 
Q 3153 47 2828 -22 
Q 2503 -91 2169 -91 
Q 1331 -91 842 396 
Q 353 884 353 1716 
Q 353 2575 817 3079 
Q 1281 3584 2069 3584 
Q 2775 3584 3186 3129 
Q 3597 2675 3597 1894 
z
M 3022 2063 
Q 3016 2534 2758 2815 
Q 2500 3097 2075 3097 
Q 1594 3097 1305 2825 
Q 1016 2553 972 2059 
L 3022 2063 
z
" transform="scale(0.015625)"/>
       <path id="DejaVuSans-55" d="M 2631 2963 
Q 2534 3019 2420 3045 
Q 2306 3072 2169 3072 
Q 1681 3072 1420 2755 
Q 1159 2438 1159 1844 
L 1159 0 
L 581 0 
L 581 3500 
L 1159 3500 
L 1159 2956 
Q 1341 3275 1631 3429 
Q 1922 3584 2338 3584 
Q 2397 3584 2469 3576 
Q 2541 3569 2628 3553 
L 2631 2963 
z
" transform="scale(0.015625)"/>
       <path id="DejaVuSans-46" d="M 3122 3366 
L 3122 2828 
Q 2878 2963 2633 3030 
Q 2388 3097 2138 3097 
Q 1578 3097 1268 2742 
Q 959 2388 959 1747 
Q 959 1106 1268 751 
Q 1578 397 2138 397 
Q 2388 397 2633 464 
Q 2878 531 3122 666 
L 3122 134 
Q 2881 22 2623 -34 
Q 2366 -91 2075 -91 
Q 1284 -91 818 406 
Q 353 903 353 1747 
Q 353 2603 823 3093 
Q 1294 3584 2113 3584 
Q 2378 3584 2631 3529 
Q 2884 3475 3122 3366 
z
" transform="scale(0.015625)"/>
       <path id="DejaVuSans-51" d="M 3513 2113 
L 3513 0 
L 2938 0 
L 2938 2094 
Q 2938 2591 2744 2837 
Q 2550 3084 2163 3084 
Q 1697 3084 1428 2787 
Q 1159 2491 1159 1978 
L 1159 0 
L 581 0 
L 581 3500 
L 1159 3500 
L 1159 2956 
Q 1366 3272 1645 3428 
Q 1925 3584 2291 3584 
Q 2894 3584 3203 3211 
Q 3513 2838 3513 2113 
z
" transform="scale(0.015625)"/>
       <path id="DejaVuSans-57" d="M 1172 4494 
L 1172 3500 
L 2356 3500 
L 2356 3053 
L 1172 3053 
L 1172 1153 
Q 1172 725 1289 603 
Q 1406 481 1766 481 
L 2356 481 
L 2356 0 
L 1766 0 
Q 1100 0 847 248 
Q 594 497 594 1153 
L 594 3053 
L 172 3053 
L 172 3500 
L 594 3500 
L 594 4494 
L 1172 4494 
z
" transform="scale(0.015625)"/>
       <path id="DejaVuSans-3" transform="scale(0.015625)"/>
       <path id="DejaVuSans-52" d="M 1959 3097 
Q 1497 3097 1228 2736 
Q 959 2375 959 1747 
Q 959 1119 1226 758 
Q 1494 397 1959 397 
Q 2419 397 2687 759 
Q 2956 1122 2956 1747 
Q 2956 2369 2687 2733 
Q 2419 3097 1959 3097 
z
M 1959 3584 
Q 2709 3584 3137 3096 
Q 3566 2609 3566 1747 
Q 3566 888 3137 398 
Q 2709 -91 1959 -91 
Q 1206 -91 779 398 
Q 353 888 353 1747 
Q 353 2609 779 3096 
Q 1206 3584 1959 3584 
z
" transform="scale(0.015625)"/>
       <path id="DejaVuSans-49" d="M 2375 4863 
L 2375 4384 
L 1825 4384 
Q 1516 4384 1395 4259 
Q 1275 4134 1275 3809 
L 1275 3500 
L 2222 3500 
L 2222 3053 
L 1275 3053 
L 1275 0 
L 697 0 
L 697 3053 
L 147 3053 
L 147 3500 
L 697 3500 
L 697 3744 
Q 697 4328 969 4595 
Q 1241 4863 1831 4863 
L 2375 4863 
z
" transform="scale(0.015625)"/>
       <path id="DejaVuSans-27" d="M 1259 4147 
L 1259 519 
L 2022 519 
Q 2988 519 3436 956 
Q 3884 1394 3884 2338 
Q 3884 3275 3436 3711 
Q 2988 4147 2022 4147 
L 1259 4147 
z
M 628 4666 
L 1925 4666 
Q 3281 4666 3915 4102 
Q 4550 3538 4550 2338 
Q 4550 1131 3912 565 
Q 3275 0 1925 0 
L 628 0 
L 628 4666 
z
" transform="scale(0.015625)"/>
       <path id="DejaVuSans-44" d="M 2194 1759 
Q 1497 1759 1228 1600 
Q 959 1441 959 1056 
Q 959 750 1161 570 
Q 1363 391 1709 391 
Q 2188 391 2477 730 
Q 2766 1069 2766 1631 
L 2766 1759 
L 2194 1759 
z
M 3341 1997 
L 3341 0 
L 2766 0 
L 2766 531 
Q 2569 213 2275 61 
Q 1981 -91 1556 -91 
Q 1019 -91 701 211 
Q 384 513 384 1019 
Q 384 1609 779 1909 
Q 1175 2209 1959 2209 
L 2766 2209 
L 2766 2266 
Q 2766 2663 2505 2880 
Q 2244 3097 1772 3097 
Q 1472 3097 1187 3025 
Q 903 2953 641 2809 
L 641 3341 
Q 956 3463 1253 3523 
Q 1550 3584 1831 3584 
Q 2591 3584 2966 3190 
Q 3341 2797 3341 1997 
z
" transform="scale(0.015625)"/>
       <path id="DejaVuSans-4b" d="M 3513 2113 
L 3513 0 
L 2938 0 
L 2938 2094 
Q 2938 2591 2744 2837 
Q 2550 3084 2163 3084 
Q 1697 3084 1428 2787 
Q 1159 2491 1159 1978 
L 1159 0 
L 581 0 
L 581 4863 
L 1159 4863 
L 1159 2956 
Q 1366 3272 1645 3428 
Q 1925 3584 2291 3584 
Q 2894 3584 3203 3211 
Q 3513 2838 3513 2113 
z
" transform="scale(0.015625)"/>
       <path id="DejaVuSans-56" d="M 2834 3397 
L 2834 2853 
Q 2591 2978 2328 3040 
Q 2066 3103 1784 3103 
Q 1356 3103 1142 2972 
Q 928 2841 928 2578 
Q 928 2378 1081 2264 
Q 1234 2150 1697 2047 
L 1894 2003 
Q 2506 1872 2764 1633 
Q 3022 1394 3022 966 
Q 3022 478 2636 193 
Q 2250 -91 1575 -91 
Q 1294 -91 989 -36 
Q 684 19 347 128 
L 347 722 
Q 666 556 975 473 
Q 1284 391 1588 391 
Q 1994 391 2212 530 
Q 2431 669 2431 922 
Q 2431 1156 2273 1281 
Q 2116 1406 1581 1522 
L 1381 1569 
Q 847 1681 609 1914 
Q 372 2147 372 2553 
Q 372 3047 722 3315 
Q 1072 3584 1716 3584 
Q 2034 3584 2315 3537 
Q 2597 3491 2834 3397 
z
" transform="scale(0.015625)"/>
      </defs>
      <use xlink:href="#DejaVuSans-33"/>
      <use xlink:href="#DejaVuSans-48" transform="translate(56.734375 0)"/>
      <use xlink:href="#DejaVuSans-55" transform="translate(118.265625 0)"/>
      <use xlink:href="#DejaVuSans-46" transform="translate(157.171875 0)"/>
      <use xlink:href="#DejaVuSans-48" transform="translate(212.15625 0)"/>
      <use xlink:href="#DejaVuSans-51" transform="translate(273.6875 0)"/>
      <use xlink:href="#DejaVuSans-57" transform="translate(337.0625 0)"/>
      <use xlink:href="#DejaVuSans-3" transform="translate(376.265625 0)"/>
      <use xlink:href="#DejaVuSans-52" transform="translate(408.046875 0)"/>
      <use xlink:href="#DejaVuSans-49" transform="translate(469.234375 0)"/>
      <use xlink:href="#DejaVuSans-3" transform="translate(504.4375 0)"/>
      <use xlink:href="#DejaVuSans-27" transform="translate(536.21875 0)"/>
      <use xlink:href="#DejaVuSans-48" transform="translate(613.21875 0)"/>
      <use xlink:href="#DejaVuSans-44" transform="translate(674.75 0)"/>
      <use xlink:href="#DejaVuSans-57" transform="translate(736.03125 0)"/>
      <use xlink:href="#DejaVuSans-4b" transform="translate(775.234375 0)"/>
      <use xlink:href="#DejaVuSans-56" transform="translate(838.609375 0)"/>
     </g>
    </g>
   </g>
   <g id="matplotlib.axis_2">
    <g id="ytick_1">
     <g id="text_11">
      <!-- Lung Cancer -->
      <g style="fill: #262626" transform="translate(258.9125 75.77437) scale(0.11 -0.11)">
       <defs>
        <path id="DejaVuSans-2f" d="M 628 4666 
L 1259 4666 
L 1259 531 
L 3531 531 
L 3531 0 
L 628 0 
L 628 4666 
z
" transform="scale(0.015625)"/>
        <path id="DejaVuSans-58" d="M 544 1381 
L 544 3500 
L 1119 3500 
L 1119 1403 
Q 1119 906 1312 657 
Q 1506 409 1894 409 
Q 2359 409 2629 706 
Q 2900 1003 2900 1516 
L 2900 3500 
L 3475 3500 
L 3475 0 
L 2900 0 
L 2900 538 
Q 2691 219 2414 64 
Q 2138 -91 1772 -91 
Q 1169 -91 856 284 
Q 544 659 544 1381 
z
M 1991 3584 
L 1991 3584 
z
" transform="scale(0.015625)"/>
        <path id="DejaVuSans-4a" d="M 2906 1791 
Q 2906 2416 2648 2759 
Q 2391 3103 1925 3103 
Q 1463 3103 1205 2759 
Q 947 2416 947 1791 
Q 947 1169 1205 825 
Q 1463 481 1925 481 
Q 2391 481 2648 825 
Q 2906 1169 2906 1791 
z
M 3481 434 
Q 3481 -459 3084 -895 
Q 2688 -1331 1869 -1331 
Q 1566 -1331 1297 -1286 
Q 1028 -1241 775 -1147 
L 775 -588 
Q 1028 -725 1275 -790 
Q 1522 -856 1778 -856 
Q 2344 -856 2625 -561 
Q 2906 -266 2906 331 
L 2906 616 
Q 2728 306 2450 153 
Q 2172 0 1784 0 
Q 1141 0 747 490 
Q 353 981 353 1791 
Q 353 2603 747 3093 
Q 1141 3584 1784 3584 
Q 2172 3584 2450 3431 
Q 2728 3278 2906 2969 
L 2906 3500 
L 3481 3500 
L 3481 434 
z
" transform="scale(0.015625)"/>
        <path id="DejaVuSans-26" d="M 4122 4306 
L 4122 3641 
Q 3803 3938 3442 4084 
Q 3081 4231 2675 4231 
Q 1875 4231 1450 3742 
Q 1025 3253 1025 2328 
Q 1025 1406 1450 917 
Q 1875 428 2675 428 
Q 3081 428 3442 575 
Q 3803 722 4122 1019 
L 4122 359 
Q 3791 134 3420 21 
Q 3050 -91 2638 -91 
Q 1578 -91 968 557 
Q 359 1206 359 2328 
Q 359 3453 968 4101 
Q 1578 4750 2638 4750 
Q 3056 4750 3426 4639 
Q 3797 4528 4122 4306 
z
" transform="scale(0.015625)"/>
       </defs>
       <use xlink:href="#DejaVuSans-2f"/>
       <use xlink:href="#DejaVuSans-58" transform="translate(53.96875 0)"/>
       <use xlink:href="#DejaVuSans-51" transform="translate(117.34375 0)"/>
       <use xlink:href="#DejaVuSans-4a" transform="translate(180.71875 0)"/>
       <use xlink:href="#DejaVuSans-3" transform="translate(244.203125 0)"/>
       <use xlink:href="#DejaVuSans-26" transform="translate(275.984375 0)"/>
       <use xlink:href="#DejaVuSans-44" transform="translate(345.8125 0)"/>
       <use xlink:href="#DejaVuSans-51" transform="translate(407.09375 0)"/>
       <use xlink:href="#DejaVuSans-46" transform="translate(470.46875 0)"/>
       <use xlink:href="#DejaVuSans-48" transform="translate(525.453125 0)"/>
       <use xlink:href="#DejaVuSans-55" transform="translate(586.984375 0)"/>
      </g>
     </g>
    </g>
    <g id="ytick_2">
     <g id="text_12">
      <!-- Diabetes -->
      <g style="fill: #262626" transform="translate(279.173125 123.638119) scale(0.11 -0.11)">
       <defs>
        <path id="DejaVuSans-4c" d="M 603 3500 
L 1178 3500 
L 1178 0 
L 603 0 
L 603 3500 
z
M 603 4863 
L 1178 4863 
L 1178 4134 
L 603 4134 
L 603 4863 
z
" transform="scale(0.015625)"/>
        <path id="DejaVuSans-45" d="M 3116 1747 
Q 3116 2381 2855 2742 
Q 2594 3103 2138 3103 
Q 1681 3103 1420 2742 
Q 1159 2381 1159 1747 
Q 1159 1113 1420 752 
Q 1681 391 2138 391 
Q 2594 391 2855 752 
Q 3116 1113 3116 1747 
z
M 1159 2969 
Q 1341 3281 1617 3432 
Q 1894 3584 2278 3584 
Q 2916 3584 3314 3078 
Q 3713 2572 3713 1747 
Q 3713 922 3314 415 
Q 2916 -91 2278 -91 
Q 1894 -91 1617 61 
Q 1341 213 1159 525 
L 1159 0 
L 581 0 
L 581 4863 
L 1159 4863 
L 1159 2969 
z
" transform="scale(0.015625)"/>
       </defs>
       <use xlink:href="#DejaVuSans-27"/>
       <use xlink:href="#DejaVuSans-4c" transform="translate(77 0)"/>
       <use xlink:href="#DejaVuSans-44" transform="translate(104.78125 0)"/>
       <use xlink:href="#DejaVuSans-45" transform="translate(166.0625 0)"/>
       <use xlink:href="#DejaVuSans-48" transform="translate(229.546875 0)"/>
       <use xlink:href="#DejaVuSans-57" transform="translate(291.078125 0)"/>
       <use xlink:href="#DejaVuSans-48" transform="translate(330.28125 0)"/>
       <use xlink:href="#DejaVuSans-56" transform="translate(391.8125 0)"/>
      </g>
     </g>
    </g>
    <g id="ytick_3">
     <g id="text_13">
      <!-- All other Endocrine, Nutritional and Metabolic Diseases -->
      <g style="fill: #262626" transform="translate(24.753437 171.501437) scale(0.11 -0.11)">
       <defs>
        <path id="DejaVuSans-24" d="M 2188 4044 
L 1331 1722 
L 3047 1722 
L 2188 4044 
z
M 1831 4666 
L 2547 4666 
L 4325 0 
L 3669 0 
L 3244 1197 
L 1141 1197 
L 716 0 
L 50 0 
L 1831 4666 
z
" transform="scale(0.015625)"/>
        <path id="DejaVuSans-4f" d="M 603 4863 
L 1178 4863 
L 1178 0 
L 603 0 
L 603 4863 
z
" transform="scale(0.015625)"/>
        <path id="DejaVuSans-28" d="M 628 4666 
L 3578 4666 
L 3578 4134 
L 1259 4134 
L 1259 2753 
L 3481 2753 
L 3481 2222 
L 1259 2222 
L 1259 531 
L 3634 531 
L 3634 0 
L 628 0 
L 628 4666 
z
" transform="scale(0.015625)"/>
        <path id="DejaVuSans-47" d="M 2906 2969 
L 2906 4863 
L 3481 4863 
L 3481 0 
L 2906 0 
L 2906 525 
Q 2725 213 2448 61 
Q 2172 -91 1784 -91 
Q 1150 -91 751 415 
Q 353 922 353 1747 
Q 353 2572 751 3078 
Q 1150 3584 1784 3584 
Q 2172 3584 2448 3432 
Q 2725 3281 2906 2969 
z
M 947 1747 
Q 947 1113 1208 752 
Q 1469 391 1925 391 
Q 2381 391 2643 752 
Q 2906 1113 2906 1747 
Q 2906 2381 2643 2742 
Q 2381 3103 1925 3103 
Q 1469 3103 1208 2742 
Q 947 2381 947 1747 
z
" transform="scale(0.015625)"/>
        <path id="DejaVuSans-f" d="M 750 794 
L 1409 794 
L 1409 256 
L 897 -744 
L 494 -744 
L 750 256 
L 750 794 
z
" transform="scale(0.015625)"/>
        <path id="DejaVuSans-31" d="M 628 4666 
L 1478 4666 
L 3547 763 
L 3547 4666 
L 4159 4666 
L 4159 0 
L 3309 0 
L 1241 3903 
L 1241 0 
L 628 0 
L 628 4666 
z
" transform="scale(0.015625)"/>
        <path id="DejaVuSans-30" d="M 628 4666 
L 1569 4666 
L 2759 1491 
L 3956 4666 
L 4897 4666 
L 4897 0 
L 4281 0 
L 4281 4097 
L 3078 897 
L 2444 897 
L 1241 4097 
L 1241 0 
L 628 0 
L 628 4666 
z
" transform="scale(0.015625)"/>
       </defs>
       <use xlink:href="#DejaVuSans-24"/>
       <use xlink:href="#DejaVuSans-4f" transform="translate(68.40625 0)"/>
       <use xlink:href="#DejaVuSans-4f" transform="translate(96.1875 0)"/>
       <use xlink:href="#DejaVuSans-3" transform="translate(123.96875 0)"/>
       <use xlink:href="#DejaVuSans-52" transform="translate(155.75 0)"/>
       <use xlink:href="#DejaVuSans-57" transform="translate(216.9375 0)"/>
       <use xlink:href="#DejaVuSans-4b" transform="translate(256.140625 0)"/>
       <use xlink:href="#DejaVuSans-48" transform="translate(319.515625 0)"/>
       <use xlink:href="#DejaVuSans-55" transform="translate(381.046875 0)"/>
       <use xlink:href="#DejaVuSans-3" transform="translate(422.15625 0)"/>
       <use xlink:href="#DejaVuSans-28" transform="translate(453.9375 0)"/>
       <use xlink:href="#DejaVuSans-51" transform="translate(517.125 0)"/>
       <use xlink:href="#DejaVuSans-47" transform="translate(580.5 0)"/>
       <use xlink:href="#DejaVuSans-52" transform="translate(643.984375 0)"/>
       <use xlink:href="#DejaVuSans-46" transform="translate(705.171875 0)"/>
       <use xlink:href="#DejaVuSans-55" transform="translate(760.15625 0)"/>
       <use xlink:href="#DejaVuSans-4c" transform="translate(801.265625 0)"/>
       <use xlink:href="#DejaVuSans-51" transform="translate(829.046875 0)"/>
       <use xlink:href="#DejaVuSans-48" transform="translate(892.421875 0)"/>
       <use xlink:href="#DejaVuSans-f" transform="translate(953.953125 0)"/>
       <use xlink:href="#DejaVuSans-3" transform="translate(985.734375 0)"/>
       <use xlink:href="#DejaVuSans-31" transform="translate(1017.515625 0)"/>
       <use xlink:href="#DejaVuSans-58" transform="translate(1092.328125 0)"/>
       <use xlink:href="#DejaVuSans-57" transform="translate(1155.703125 0)"/>
       <use xlink:href="#DejaVuSans-55" transform="translate(1194.90625 0)"/>
       <use xlink:href="#DejaVuSans-4c" transform="translate(1236.015625 0)"/>
       <use xlink:href="#DejaVuSans-57" transform="translate(1263.796875 0)"/>
       <use xlink:href="#DejaVuSans-4c" transform="translate(1303 0)"/>
       <use xlink:href="#DejaVuSans-52" transform="translate(1330.78125 0)"/>
       <use xlink:href="#DejaVuSans-51" transform="translate(1391.96875 0)"/>
       <use xlink:href="#DejaVuSans-44" transform="translate(1455.34375 0)"/>
       <use xlink:href="#DejaVuSans-4f" transform="translate(1516.625 0)"/>
       <use xlink:href="#DejaVuSans-3" transform="translate(1544.40625 0)"/>
       <use xlink:href="#DejaVuSans-44" transform="translate(1576.1875 0)"/>
       <use xlink:href="#DejaVuSans-51" transform="translate(1637.46875 0)"/>
       <use xlink:href="#DejaVuSans-47" transform="translate(1700.84375 0)"/>
       <use xlink:href="#DejaVuSans-3" transform="translate(1764.328125 0)"/>
       <use xlink:href="#DejaVuSans-30" transform="translate(1796.109375 0)"/>
       <use xlink:href="#DejaVuSans-48" transform="translate(1882.390625 0)"/>
       <use xlink:href="#DejaVuSans-57" transform="translate(1943.921875 0)"/>
       <use xlink:href="#DejaVuSans-44" transform="translate(1983.125 0)"/>
       <use xlink:href="#DejaVuSans-45" transform="translate(2044.40625 0)"/>
       <use xlink:href="#DejaVuSans-52" transform="translate(2107.890625 0)"/>
       <use xlink:href="#DejaVuSans-4f" transform="translate(2169.078125 0)"/>
       <use xlink:href="#DejaVuSans-4c" transform="translate(2196.859375 0)"/>
       <use xlink:href="#DejaVuSans-46" transform="translate(2224.640625 0)"/>
       <use xlink:href="#DejaVuSans-3" transform="translate(2279.625 0)"/>
       <use xlink:href="#DejaVuSans-27" transform="translate(2311.40625 0)"/>
       <use xlink:href="#DejaVuSans-4c" transform="translate(2388.40625 0)"/>
       <use xlink:href="#DejaVuSans-56" transform="translate(2416.1875 0)"/>
       <use xlink:href="#DejaVuSans-48" transform="translate(2468.28125 0)"/>
       <use xlink:href="#DejaVuSans-44" transform="translate(2529.8125 0)"/>
       <use xlink:href="#DejaVuSans-56" transform="translate(2591.09375 0)"/>
       <use xlink:href="#DejaVuSans-48" transform="translate(2643.1875 0)"/>
       <use xlink:href="#DejaVuSans-56" transform="translate(2704.71875 0)"/>
      </g>
     </g>
    </g>
    <g id="ytick_4">
     <g id="text_14">
      <!-- Alzheimer's Disease -->
      <g style="fill: #262626" transform="translate(217.334219 219.364756) scale(0.11 -0.11)">
       <defs>
        <path id="DejaVuSans-5d" d="M 353 3500 
L 3084 3500 
L 3084 2975 
L 922 459 
L 3084 459 
L 3084 0 
L 275 0 
L 275 525 
L 2438 3041 
L 353 3041 
L 353 3500 
z
" transform="scale(0.015625)"/>
        <path id="DejaVuSans-50" d="M 3328 2828 
Q 3544 3216 3844 3400 
Q 4144 3584 4550 3584 
Q 5097 3584 5394 3201 
Q 5691 2819 5691 2113 
L 5691 0 
L 5113 0 
L 5113 2094 
Q 5113 2597 4934 2840 
Q 4756 3084 4391 3084 
Q 3944 3084 3684 2787 
Q 3425 2491 3425 1978 
L 3425 0 
L 2847 0 
L 2847 2094 
Q 2847 2600 2669 2842 
Q 2491 3084 2119 3084 
Q 1678 3084 1418 2786 
Q 1159 2488 1159 1978 
L 1159 0 
L 581 0 
L 581 3500 
L 1159 3500 
L 1159 2956 
Q 1356 3278 1631 3431 
Q 1906 3584 2284 3584 
Q 2666 3584 2933 3390 
Q 3200 3197 3328 2828 
z
" transform="scale(0.015625)"/>
        <path id="DejaVuSans-a" d="M 1147 4666 
L 1147 2931 
L 616 2931 
L 616 4666 
L 1147 4666 
z
" transform="scale(0.015625)"/>
       </defs>
       <use xlink:href="#DejaVuSans-24"/>
       <use xlink:href="#DejaVuSans-4f" transform="translate(68.40625 0)"/>
       <use xlink:href="#DejaVuSans-5d" transform="translate(96.1875 0)"/>
       <use xlink:href="#DejaVuSans-4b" transform="translate(148.671875 0)"/>
       <use xlink:href="#DejaVuSans-48" transform="translate(212.046875 0)"/>
       <use xlink:href="#DejaVuSans-4c" transform="translate(273.578125 0)"/>
       <use xlink:href="#DejaVuSans-50" transform="translate(301.359375 0)"/>
       <use xlink:href="#DejaVuSans-48" transform="translate(398.765625 0)"/>
       <use xlink:href="#DejaVuSans-55" transform="translate(460.296875 0)"/>
       <use xlink:href="#DejaVuSans-a" transform="translate(501.40625 0)"/>
       <use xlink:href="#DejaVuSans-56" transform="translate(528.890625 0)"/>
       <use xlink:href="#DejaVuSans-3" transform="translate(580.984375 0)"/>
       <use xlink:href="#DejaVuSans-27" transform="translate(612.765625 0)"/>
       <use xlink:href="#DejaVuSans-4c" transform="translate(689.765625 0)"/>
       <use xlink:href="#DejaVuSans-56" transform="translate(717.546875 0)"/>
       <use xlink:href="#DejaVuSans-48" transform="translate(769.640625 0)"/>
       <use xlink:href="#DejaVuSans-44" transform="translate(831.171875 0)"/>
       <use xlink:href="#DejaVuSans-56" transform="translate(892.453125 0)"/>
       <use xlink:href="#DejaVuSans-48" transform="translate(944.546875 0)"/>
      </g>
     </g>
    </g>
    <g id="ytick_5">
     <g id="text_15">
      <!-- All other Diseases of the Nervous System -->
      <g style="fill: #262626" transform="translate(99.953906 267.228075) scale(0.11 -0.11)">
       <defs>
        <path id="DejaVuSans-59" d="M 191 3500 
L 800 3500 
L 1894 563 
L 2988 3500 
L 3597 3500 
L 2284 0 
L 1503 0 
L 191 3500 
z
" transform="scale(0.015625)"/>
        <path id="DejaVuSans-36" d="M 3425 4513 
L 3425 3897 
Q 3066 4069 2747 4153 
Q 2428 4238 2131 4238 
Q 1616 4238 1336 4038 
Q 1056 3838 1056 3469 
Q 1056 3159 1242 3001 
Q 1428 2844 1947 2747 
L 2328 2669 
Q 3034 2534 3370 2195 
Q 3706 1856 3706 1288 
Q 3706 609 3251 259 
Q 2797 -91 1919 -91 
Q 1588 -91 1214 -16 
Q 841 59 441 206 
L 441 856 
Q 825 641 1194 531 
Q 1563 422 1919 422 
Q 2459 422 2753 634 
Q 3047 847 3047 1241 
Q 3047 1584 2836 1778 
Q 2625 1972 2144 2069 
L 1759 2144 
Q 1053 2284 737 2584 
Q 422 2884 422 3419 
Q 422 4038 858 4394 
Q 1294 4750 2059 4750 
Q 2388 4750 2728 4690 
Q 3069 4631 3425 4513 
z
" transform="scale(0.015625)"/>
        <path id="DejaVuSans-5c" d="M 2059 -325 
Q 1816 -950 1584 -1140 
Q 1353 -1331 966 -1331 
L 506 -1331 
L 506 -850 
L 844 -850 
Q 1081 -850 1212 -737 
Q 1344 -625 1503 -206 
L 1606 56 
L 191 3500 
L 800 3500 
L 1894 763 
L 2988 3500 
L 3597 3500 
L 2059 -325 
z
" transform="scale(0.015625)"/>
       </defs>
       <use xlink:href="#DejaVuSans-24"/>
       <use xlink:href="#DejaVuSans-4f" transform="translate(68.40625 0)"/>
       <use xlink:href="#DejaVuSans-4f" transform="translate(96.1875 0)"/>
       <use xlink:href="#DejaVuSans-3" transform="translate(123.96875 0)"/>
       <use xlink:href="#DejaVuSans-52" transform="translate(155.75 0)"/>
       <use xlink:href="#DejaVuSans-57" transform="translate(216.9375 0)"/>
       <use xlink:href="#DejaVuSans-4b" transform="translate(256.140625 0)"/>
       <use xlink:href="#DejaVuSans-48" transform="translate(319.515625 0)"/>
       <use xlink:href="#DejaVuSans-55" transform="translate(381.046875 0)"/>
       <use xlink:href="#DejaVuSans-3" transform="translate(422.15625 0)"/>
       <use xlink:href="#DejaVuSans-27" transform="translate(453.9375 0)"/>
       <use xlink:href="#DejaVuSans-4c" transform="translate(530.9375 0)"/>
       <use xlink:href="#DejaVuSans-56" transform="translate(558.71875 0)"/>
       <use xlink:href="#DejaVuSans-48" transform="translate(610.8125 0)"/>
       <use xlink:href="#DejaVuSans-44" transform="translate(672.34375 0)"/>
       <use xlink:href="#DejaVuSans-56" transform="translate(733.625 0)"/>
       <use xlink:href="#DejaVuSans-48" transform="translate(785.71875 0)"/>
       <use xlink:href="#DejaVuSans-56" transform="translate(847.25 0)"/>
       <use xlink:href="#DejaVuSans-3" transform="translate(899.34375 0)"/>
       <use xlink:href="#DejaVuSans-52" transform="translate(931.125 0)"/>
       <use xlink:href="#DejaVuSans-49" transform="translate(992.3125 0)"/>
       <use xlink:href="#DejaVuSans-3" transform="translate(1027.515625 0)"/>
       <use xlink:href="#DejaVuSans-57" transform="translate(1059.296875 0)"/>
       <use xlink:href="#DejaVuSans-4b" transform="translate(1098.5 0)"/>
       <use xlink:href="#DejaVuSans-48" transform="translate(1161.875 0)"/>
       <use xlink:href="#DejaVuSans-3" transform="translate(1223.40625 0)"/>
       <use xlink:href="#DejaVuSans-31" transform="translate(1255.1875 0)"/>
       <use xlink:href="#DejaVuSans-48" transform="translate(1330 0)"/>
       <use xlink:href="#DejaVuSans-55" transform="translate(1391.53125 0)"/>
       <use xlink:href="#DejaVuSans-59" transform="translate(1432.640625 0)"/>
       <use xlink:href="#DejaVuSans-52" transform="translate(1491.828125 0)"/>
       <use xlink:href="#DejaVuSans-58" transform="translate(1553.015625 0)"/>
       <use xlink:href="#DejaVuSans-56" transform="translate(1616.390625 0)"/>
       <use xlink:href="#DejaVuSans-3" transform="translate(1668.484375 0)"/>
       <use xlink:href="#DejaVuSans-36" transform="translate(1700.265625 0)"/>
       <use xlink:href="#DejaVuSans-5c" transform="translate(1763.75 0)"/>
       <use xlink:href="#DejaVuSans-56" transform="translate(1822.9375 0)"/>
       <use xlink:href="#DejaVuSans-57" transform="translate(1875.03125 0)"/>
       <use xlink:href="#DejaVuSans-48" transform="translate(1914.234375 0)"/>
       <use xlink:href="#DejaVuSans-50" transform="translate(1975.765625 0)"/>
      </g>
     </g>
    </g>
    <g id="ytick_6">
     <g id="text_16">
      <!-- Hypertensive Heart Disease -->
      <g style="fill: #262626" transform="translate(173.956406 315.091394) scale(0.11 -0.11)">
       <defs>
        <path id="DejaVuSans-2b" d="M 628 4666 
L 1259 4666 
L 1259 2753 
L 3553 2753 
L 3553 4666 
L 4184 4666 
L 4184 0 
L 3553 0 
L 3553 2222 
L 1259 2222 
L 1259 0 
L 628 0 
L 628 4666 
z
" transform="scale(0.015625)"/>
        <path id="DejaVuSans-53" d="M 1159 525 
L 1159 -1331 
L 581 -1331 
L 581 3500 
L 1159 3500 
L 1159 2969 
Q 1341 3281 1617 3432 
Q 1894 3584 2278 3584 
Q 2916 3584 3314 3078 
Q 3713 2572 3713 1747 
Q 3713 922 3314 415 
Q 2916 -91 2278 -91 
Q 1894 -91 1617 61 
Q 1341 213 1159 525 
z
M 3116 1747 
Q 3116 2381 2855 2742 
Q 2594 3103 2138 3103 
Q 1681 3103 1420 2742 
Q 1159 2381 1159 1747 
Q 1159 1113 1420 752 
Q 1681 391 2138 391 
Q 2594 391 2855 752 
Q 3116 1113 3116 1747 
z
" transform="scale(0.015625)"/>
       </defs>
       <use xlink:href="#DejaVuSans-2b"/>
       <use xlink:href="#DejaVuSans-5c" transform="translate(75.203125 0)"/>
       <use xlink:href="#DejaVuSans-53" transform="translate(134.390625 0)"/>
       <use xlink:href="#DejaVuSans-48" transform="translate(197.875 0)"/>
       <use xlink:href="#DejaVuSans-55" transform="translate(259.40625 0)"/>
       <use xlink:href="#DejaVuSans-57" transform="translate(300.515625 0)"/>
       <use xlink:href="#DejaVuSans-48" transform="translate(339.71875 0)"/>
       <use xlink:href="#DejaVuSans-51" transform="translate(401.25 0)"/>
       <use xlink:href="#DejaVuSans-56" transform="translate(464.625 0)"/>
       <use xlink:href="#DejaVuSans-4c" transform="translate(516.71875 0)"/>
       <use xlink:href="#DejaVuSans-59" transform="translate(544.5 0)"/>
       <use xlink:href="#DejaVuSans-48" transform="translate(603.6875 0)"/>
       <use xlink:href="#DejaVuSans-3" transform="translate(665.21875 0)"/>
       <use xlink:href="#DejaVuSans-2b" transform="translate(697 0)"/>
       <use xlink:href="#DejaVuSans-48" transform="translate(772.203125 0)"/>
       <use xlink:href="#DejaVuSans-44" transform="translate(833.734375 0)"/>
       <use xlink:href="#DejaVuSans-55" transform="translate(895.015625 0)"/>
       <use xlink:href="#DejaVuSans-57" transform="translate(936.125 0)"/>
       <use xlink:href="#DejaVuSans-3" transform="translate(975.328125 0)"/>
       <use xlink:href="#DejaVuSans-27" transform="translate(1007.109375 0)"/>
       <use xlink:href="#DejaVuSans-4c" transform="translate(1084.109375 0)"/>
       <use xlink:href="#DejaVuSans-56" transform="translate(1111.890625 0)"/>
       <use xlink:href="#DejaVuSans-48" transform="translate(1163.984375 0)"/>
       <use xlink:href="#DejaVuSans-44" transform="translate(1225.515625 0)"/>
       <use xlink:href="#DejaVuSans-56" transform="translate(1286.796875 0)"/>
       <use xlink:href="#DejaVuSans-48" transform="translate(1338.890625 0)"/>
      </g>
     </g>
    </g>
    <g id="ytick_7">
     <g id="text_17">
      <!-- Obstructive Heart Disease (incl. Heart Attack) -->
      <g style="fill: #262626" transform="translate(75.826094 362.954712) scale(0.11 -0.11)">
       <defs>
        <path id="DejaVuSans-32" d="M 2522 4238 
Q 1834 4238 1429 3725 
Q 1025 3213 1025 2328 
Q 1025 1447 1429 934 
Q 1834 422 2522 422 
Q 3209 422 3611 934 
Q 4013 1447 4013 2328 
Q 4013 3213 3611 3725 
Q 3209 4238 2522 4238 
z
M 2522 4750 
Q 3503 4750 4090 4092 
Q 4678 3434 4678 2328 
Q 4678 1225 4090 567 
Q 3503 -91 2522 -91 
Q 1538 -91 948 565 
Q 359 1222 359 2328 
Q 359 3434 948 4092 
Q 1538 4750 2522 4750 
z
" transform="scale(0.015625)"/>
        <path id="DejaVuSans-b" d="M 1984 4856 
Q 1566 4138 1362 3434 
Q 1159 2731 1159 2009 
Q 1159 1288 1364 580 
Q 1569 -128 1984 -844 
L 1484 -844 
Q 1016 -109 783 600 
Q 550 1309 550 2009 
Q 550 2706 781 3412 
Q 1013 4119 1484 4856 
L 1984 4856 
z
" transform="scale(0.015625)"/>
        <path id="DejaVuSans-11" d="M 684 794 
L 1344 794 
L 1344 0 
L 684 0 
L 684 794 
z
" transform="scale(0.015625)"/>
        <path id="DejaVuSans-4e" d="M 581 4863 
L 1159 4863 
L 1159 1991 
L 2875 3500 
L 3609 3500 
L 1753 1863 
L 3688 0 
L 2938 0 
L 1159 1709 
L 1159 0 
L 581 0 
L 581 4863 
z
" transform="scale(0.015625)"/>
        <path id="DejaVuSans-c" d="M 513 4856 
L 1013 4856 
Q 1481 4119 1714 3412 
Q 1947 2706 1947 2009 
Q 1947 1309 1714 600 
Q 1481 -109 1013 -844 
L 513 -844 
Q 928 -128 1133 580 
Q 1338 1288 1338 2009 
Q 1338 2731 1133 3434 
Q 928 4138 513 4856 
z
" transform="scale(0.015625)"/>
       </defs>
       <use xlink:href="#DejaVuSans-32"/>
       <use xlink:href="#DejaVuSans-45" transform="translate(78.71875 0)"/>
       <use xlink:href="#DejaVuSans-56" transform="translate(142.203125 0)"/>
       <use xlink:href="#DejaVuSans-57" transform="translate(194.296875 0)"/>
       <use xlink:href="#DejaVuSans-55" transform="translate(233.5 0)"/>
       <use xlink:href="#DejaVuSans-58" transform="translate(274.609375 0)"/>
       <use xlink:href="#DejaVuSans-46" transform="translate(337.984375 0)"/>
       <use xlink:href="#DejaVuSans-57" transform="translate(392.96875 0)"/>
       <use xlink:href="#DejaVuSans-4c" transform="translate(432.171875 0)"/>
       <use xlink:href="#DejaVuSans-59" transform="translate(459.953125 0)"/>
       <use xlink:href="#DejaVuSans-48" transform="translate(519.140625 0)"/>
       <use xlink:href="#DejaVuSans-3" transform="translate(580.671875 0)"/>
       <use xlink:href="#DejaVuSans-2b" transform="translate(612.453125 0)"/>
       <use xlink:href="#DejaVuSans-48" transform="translate(687.65625 0)"/>
       <use xlink:href="#DejaVuSans-44" transform="translate(749.1875 0)"/>
       <use xlink:href="#DejaVuSans-55" transform="translate(810.46875 0)"/>
       <use xlink:href="#DejaVuSans-57" transform="translate(851.578125 0)"/>
       <use xlink:href="#DejaVuSans-3" transform="translate(890.78125 0)"/>
       <use xlink:href="#DejaVuSans-27" transform="translate(922.5625 0)"/>
       <use xlink:href="#DejaVuSans-4c" transform="translate(999.5625 0)"/>
       <use xlink:href="#DejaVuSans-56" transform="translate(1027.34375 0)"/>
       <use xlink:href="#DejaVuSans-48" transform="translate(1079.4375 0)"/>
       <use xlink:href="#DejaVuSans-44" transform="translate(1140.96875 0)"/>
       <use xlink:href="#DejaVuSans-56" transform="translate(1202.25 0)"/>
       <use xlink:href="#DejaVuSans-48" transform="translate(1254.34375 0)"/>
       <use xlink:href="#DejaVuSans-3" transform="translate(1315.875 0)"/>
       <use xlink:href="#DejaVuSans-b" transform="translate(1347.65625 0)"/>
       <use xlink:href="#DejaVuSans-4c" transform="translate(1386.671875 0)"/>
       <use xlink:href="#DejaVuSans-51" transform="translate(1414.453125 0)"/>
       <use xlink:href="#DejaVuSans-46" transform="translate(1477.828125 0)"/>
       <use xlink:href="#DejaVuSans-4f" transform="translate(1532.8125 0)"/>
       <use xlink:href="#DejaVuSans-11" transform="translate(1560.59375 0)"/>
       <use xlink:href="#DejaVuSans-3" transform="translate(1592.375 0)"/>
       <use xlink:href="#DejaVuSans-2b" transform="translate(1624.15625 0)"/>
       <use xlink:href="#DejaVuSans-48" transform="translate(1699.359375 0)"/>
       <use xlink:href="#DejaVuSans-44" transform="translate(1760.890625 0)"/>
       <use xlink:href="#DejaVuSans-55" transform="translate(1822.171875 0)"/>
       <use xlink:href="#DejaVuSans-57" transform="translate(1863.28125 0)"/>
       <use xlink:href="#DejaVuSans-3" transform="translate(1902.484375 0)"/>
       <use xlink:href="#DejaVuSans-24" transform="translate(1934.265625 0)"/>
       <use xlink:href="#DejaVuSans-57" transform="translate(2000.921875 0)"/>
       <use xlink:href="#DejaVuSans-57" transform="translate(2040.125 0)"/>
       <use xlink:href="#DejaVuSans-44" transform="translate(2079.328125 0)"/>
       <use xlink:href="#DejaVuSans-46" transform="translate(2140.609375 0)"/>
       <use xlink:href="#DejaVuSans-4e" transform="translate(2195.59375 0)"/>
       <use xlink:href="#DejaVuSans-c" transform="translate(2253.5 0)"/>
      </g>
     </g>
    </g>
    <g id="ytick_8">
     <g id="text_18">
      <!-- Stroke -->
      <g style="fill: #262626" transform="translate(292.950625 410.818031) scale(0.11 -0.11)">
       <use xlink:href="#DejaVuSans-36"/>
       <use xlink:href="#DejaVuSans-57" transform="translate(63.484375 0)"/>
       <use xlink:href="#DejaVuSans-55" transform="translate(102.6875 0)"/>
       <use xlink:href="#DejaVuSans-52" transform="translate(141.59375 0)"/>
       <use xlink:href="#DejaVuSans-4e" transform="translate(202.78125 0)"/>
       <use xlink:href="#DejaVuSans-48" transform="translate(257.125 0)"/>
      </g>
     </g>
    </g>
    <g id="ytick_9">
     <g id="text_19">
      <!-- All other Chronic Lower Respiratory Diseases -->
      <g style="fill: #262626" transform="translate(80.868906 458.68135) scale(0.11 -0.11)">
       <defs>
        <path id="DejaVuSans-5a" d="M 269 3500 
L 844 3500 
L 1563 769 
L 2278 3500 
L 2956 3500 
L 3675 769 
L 4391 3500 
L 4966 3500 
L 4050 0 
L 3372 0 
L 2619 2869 
L 1863 0 
L 1184 0 
L 269 3500 
z
" transform="scale(0.015625)"/>
        <path id="DejaVuSans-35" d="M 2841 2188 
Q 3044 2119 3236 1894 
Q 3428 1669 3622 1275 
L 4263 0 
L 3584 0 
L 2988 1197 
Q 2756 1666 2539 1819 
Q 2322 1972 1947 1972 
L 1259 1972 
L 1259 0 
L 628 0 
L 628 4666 
L 2053 4666 
Q 2853 4666 3247 4331 
Q 3641 3997 3641 3322 
Q 3641 2881 3436 2590 
Q 3231 2300 2841 2188 
z
M 1259 4147 
L 1259 2491 
L 2053 2491 
Q 2509 2491 2742 2702 
Q 2975 2913 2975 3322 
Q 2975 3731 2742 3939 
Q 2509 4147 2053 4147 
L 1259 4147 
z
" transform="scale(0.015625)"/>
       </defs>
       <use xlink:href="#DejaVuSans-24"/>
       <use xlink:href="#DejaVuSans-4f" transform="translate(68.40625 0)"/>
       <use xlink:href="#DejaVuSans-4f" transform="translate(96.1875 0)"/>
       <use xlink:href="#DejaVuSans-3" transform="translate(123.96875 0)"/>
       <use xlink:href="#DejaVuSans-52" transform="translate(155.75 0)"/>
       <use xlink:href="#DejaVuSans-57" transform="translate(216.9375 0)"/>
       <use xlink:href="#DejaVuSans-4b" transform="translate(256.140625 0)"/>
       <use xlink:href="#DejaVuSans-48" transform="translate(319.515625 0)"/>
       <use xlink:href="#DejaVuSans-55" transform="translate(381.046875 0)"/>
       <use xlink:href="#DejaVuSans-3" transform="translate(422.15625 0)"/>
       <use xlink:href="#DejaVuSans-26" transform="translate(453.9375 0)"/>
       <use xlink:href="#DejaVuSans-4b" transform="translate(523.765625 0)"/>
       <use xlink:href="#DejaVuSans-55" transform="translate(587.140625 0)"/>
       <use xlink:href="#DejaVuSans-52" transform="translate(626.046875 0)"/>
       <use xlink:href="#DejaVuSans-51" transform="translate(687.234375 0)"/>
       <use xlink:href="#DejaVuSans-4c" transform="translate(750.609375 0)"/>
       <use xlink:href="#DejaVuSans-46" transform="translate(778.390625 0)"/>
       <use xlink:href="#DejaVuSans-3" transform="translate(833.375 0)"/>
       <use xlink:href="#DejaVuSans-2f" transform="translate(865.15625 0)"/>
       <use xlink:href="#DejaVuSans-52" transform="translate(919.125 0)"/>
       <use xlink:href="#DejaVuSans-5a" transform="translate(980.3125 0)"/>
       <use xlink:href="#DejaVuSans-48" transform="translate(1062.09375 0)"/>
       <use xlink:href="#DejaVuSans-55" transform="translate(1123.625 0)"/>
       <use xlink:href="#DejaVuSans-3" transform="translate(1164.734375 0)"/>
       <use xlink:href="#DejaVuSans-35" transform="translate(1196.515625 0)"/>
       <use xlink:href="#DejaVuSans-48" transform="translate(1261.515625 0)"/>
       <use xlink:href="#DejaVuSans-56" transform="translate(1323.046875 0)"/>
       <use xlink:href="#DejaVuSans-53" transform="translate(1375.140625 0)"/>
       <use xlink:href="#DejaVuSans-4c" transform="translate(1438.625 0)"/>
       <use xlink:href="#DejaVuSans-55" transform="translate(1466.40625 0)"/>
       <use xlink:href="#DejaVuSans-44" transform="translate(1507.515625 0)"/>
       <use xlink:href="#DejaVuSans-57" transform="translate(1568.796875 0)"/>
       <use xlink:href="#DejaVuSans-52" transform="translate(1608 0)"/>
       <use xlink:href="#DejaVuSans-55" transform="translate(1669.1875 0)"/>
       <use xlink:href="#DejaVuSans-5c" transform="translate(1710.296875 0)"/>
       <use xlink:href="#DejaVuSans-3" transform="translate(1769.484375 0)"/>
       <use xlink:href="#DejaVuSans-27" transform="translate(1801.265625 0)"/>
       <use xlink:href="#DejaVuSans-4c" transform="translate(1878.265625 0)"/>
       <use xlink:href="#DejaVuSans-56" transform="translate(1906.046875 0)"/>
       <use xlink:href="#DejaVuSans-48" transform="translate(1958.140625 0)"/>
       <use xlink:href="#DejaVuSans-44" transform="translate(2019.671875 0)"/>
       <use xlink:href="#DejaVuSans-56" transform="translate(2080.953125 0)"/>
       <use xlink:href="#DejaVuSans-48" transform="translate(2133.046875 0)"/>
       <use xlink:href="#DejaVuSans-56" transform="translate(2194.578125 0)"/>
      </g>
     </g>
    </g>
    <g id="ytick_10">
     <g id="text_20">
      <!-- Poisoning -->
      <g style="fill: #262626" transform="translate(275.532812 506.544669) scale(0.11 -0.11)">
       <use xlink:href="#DejaVuSans-33"/>
       <use xlink:href="#DejaVuSans-52" transform="translate(56.734375 0)"/>
       <use xlink:href="#DejaVuSans-4c" transform="translate(117.921875 0)"/>
       <use xlink:href="#DejaVuSans-56" transform="translate(145.703125 0)"/>
       <use xlink:href="#DejaVuSans-52" transform="translate(197.796875 0)"/>
       <use xlink:href="#DejaVuSans-51" transform="translate(258.984375 0)"/>
       <use xlink:href="#DejaVuSans-4c" transform="translate(322.359375 0)"/>
       <use xlink:href="#DejaVuSans-51" transform="translate(350.140625 0)"/>
       <use xlink:href="#DejaVuSans-4a" transform="translate(413.515625 0)"/>
      </g>
     </g>
    </g>
    <g id="text_21">
     <!-- Cause of Death -->
     <g style="fill: #262626" transform="translate(17.870625 333.207781) rotate(-90) scale(0.12 -0.12)">
      <use xlink:href="#DejaVuSans-26"/>
      <use xlink:href="#DejaVuSans-44" transform="translate(69.828125 0)"/>
      <use xlink:href="#DejaVuSans-58" transform="translate(131.109375 0)"/>
      <use xlink:href="#DejaVuSans-56" transform="translate(194.484375 0)"/>
      <use xlink:href="#DejaVuSans-48" transform="translate(246.578125 0)"/>
      <use xlink:href="#DejaVuSans-3" transform="translate(308.109375 0)"/>
      <use xlink:href="#DejaVuSans-52" transform="translate(339.890625 0)"/>
      <use xlink:href="#DejaVuSans-49" transform="translate(401.078125 0)"/>
      <use xlink:href="#DejaVuSans-3" transform="translate(436.28125 0)"/>
      <use xlink:href="#DejaVuSans-27" transform="translate(468.0625 0)"/>
      <use xlink:href="#DejaVuSans-48" transform="translate(545.0625 0)"/>
      <use xlink:href="#DejaVuSans-44" transform="translate(606.59375 0)"/>
      <use xlink:href="#DejaVuSans-57" transform="translate(667.875 0)"/>
      <use xlink:href="#DejaVuSans-4b" transform="translate(707.078125 0)"/>
     </g>
    </g>
   </g>
   <g id="patch_3">
    <path d="M 337.502812 52.450332 
L 637.605526 52.450332 
L 637.605526 71.595659 
L 337.502812 71.595659 
z
" clip-path="url(#p68320ace97)" style="fill: #e1812c; stroke: #ffffff; stroke-linejoin: miter"/>
   </g>
   <g id="patch_4">
    <path d="M 337.502812 100.313651 
L 648.013712 100.313651 
L 648.013712 119.458978 
L 337.502812 119.458978 
z
" clip-path="url(#p68320ace97)" style="fill: #e1812c; stroke: #ffffff; stroke-linejoin: miter"/>
   </g>
   <g id="patch_5">
    <path d="M 337.502812 148.176969 
L 618.52385 148.176969 
L 618.52385 167.322297 
L 337.502812 167.322297 
z
" clip-path="url(#p68320ace97)" style="fill: #e1812c; stroke: #ffffff; stroke-linejoin: miter"/>
   </g>
   <g id="patch_6">
    <path d="M 337.502812 196.040288 
L 722.605716 196.040288 
L 722.605716 215.185616 
L 337.502812 215.185616 
z
" clip-path="url(#p68320ace97)" style="fill: #e1812c; stroke: #ffffff; stroke-linejoin: miter"/>
   </g>
   <g id="patch_7">
    <path d="M 337.502812 243.903607 
L 927.300052 243.903607 
L 927.300052 263.048934 
L 337.502812 263.048934 
z
" clip-path="url(#p68320ace97)" style="fill: #e1812c; stroke: #ffffff; stroke-linejoin: miter"/>
   </g>
   <g id="patch_8">
    <path d="M 337.502812 291.766926 
L 759.034369 291.766926 
L 759.034369 310.912253 
L 337.502812 310.912253 
z
" clip-path="url(#p68320ace97)" style="fill: #e1812c; stroke: #ffffff; stroke-linejoin: miter"/>
   </g>
   <g id="patch_9">
    <path d="M 337.502812 339.630244 
L 963.728705 339.630244 
L 963.728705 358.775572 
L 337.502812 358.775572 
z
" clip-path="url(#p68320ace97)" style="fill: #e1812c; stroke: #ffffff; stroke-linejoin: miter"/>
   </g>
   <g id="patch_10">
    <path d="M 337.502812 387.493563 
L 838.830466 387.493563 
L 838.830466 406.638891 
L 337.502812 406.638891 
z
" clip-path="url(#p68320ace97)" style="fill: #e1812c; stroke: #ffffff; stroke-linejoin: miter"/>
   </g>
   <g id="patch_11">
    <path d="M 337.502812 435.356882 
L 595.972779 435.356882 
L 595.972779 454.502209 
L 337.502812 454.502209 
z
" clip-path="url(#p68320ace97)" style="fill: #e1812c; stroke: #ffffff; stroke-linejoin: miter"/>
   </g>
   <g id="patch_12">
    <path d="M 337.502812 483.220201 
L 604.646268 483.220201 
L 604.646268 502.365528 
L 337.502812 502.365528 
z
" clip-path="url(#p68320ace97)" style="fill: #e1812c; stroke: #ffffff; stroke-linejoin: miter"/>
   </g>
   <g id="patch_13">
    <path d="M 337.502812 71.595659 
L 663.967922 71.595659 
L 663.967922 90.740987 
L 337.502812 90.740987 
z
" clip-path="url(#p68320ace97)" style="fill: #3274a1; stroke: #ffffff; stroke-linejoin: miter"/>
   </g>
   <g id="patch_14">
    <path d="M 337.502812 119.458978 
L 621.152825 119.458978 
L 621.152825 138.604306 
L 337.502812 138.604306 
z
" clip-path="url(#p68320ace97)" style="fill: #3274a1; stroke: #ffffff; stroke-linejoin: miter"/>
   </g>
   <g id="patch_15">
    <path d="M 337.502812 167.322297 
L 597.069334 167.322297 
L 597.069334 186.467624 
L 337.502812 186.467624 
z
" clip-path="url(#p68320ace97)" style="fill: #3274a1; stroke: #ffffff; stroke-linejoin: miter"/>
   </g>
   <g id="patch_16">
    <path d="M 337.502812 215.185616 
L 756.287973 215.185616 
L 756.287973 234.330943 
L 337.502812 234.330943 
z
" clip-path="url(#p68320ace97)" style="fill: #3274a1; stroke: #ffffff; stroke-linejoin: miter"/>
   </g>
   <g id="patch_17">
    <path d="M 337.502812 263.048934 
L 946.279963 263.048934 
L 946.279963 282.194262 
L 337.502812 282.194262 
z
" clip-path="url(#p68320ace97)" style="fill: #3274a1; stroke: #ffffff; stroke-linejoin: miter"/>
   </g>
   <g id="patch_18">
    <path d="M 337.502812 310.912253 
L 736.218397 310.912253 
L 736.218397 330.057581 
L 337.502812 330.057581 
z
" clip-path="url(#p68320ace97)" style="fill: #3274a1; stroke: #ffffff; stroke-linejoin: miter"/>
   </g>
   <g id="patch_19">
    <path d="M 337.502812 358.775572 
L 910.154725 358.775572 
L 910.154725 377.920899 
L 337.502812 377.920899 
z
" clip-path="url(#p68320ace97)" style="fill: #3274a1; stroke: #ffffff; stroke-linejoin: miter"/>
   </g>
   <g id="patch_20">
    <path d="M 337.502812 406.638891 
L 871.353544 406.638891 
L 871.353544 425.784218 
L 337.502812 425.784218 
z
" clip-path="url(#p68320ace97)" style="fill: #3274a1; stroke: #ffffff; stroke-linejoin: miter"/>
   </g>
   <g id="patch_21">
    <path d="M 337.502812 454.502209 
L 554.254237 454.502209 
L 554.254237 473.647537 
L 337.502812 473.647537 
z
" clip-path="url(#p68320ace97)" style="fill: #3274a1; stroke: #ffffff; stroke-linejoin: miter"/>
   </g>
   <g id="patch_22">
    <path d="M 337.502812 502.365528 
L 626.504712 502.365528 
L 626.504712 521.510856 
L 337.502812 521.510856 
z
" clip-path="url(#p68320ace97)" style="fill: #3274a1; stroke: #ffffff; stroke-linejoin: miter"/>
   </g>
   <g id="patch_23">
    <path d="M 337.502812 71.595659 
L 337.502812 71.595659 
L 337.502812 71.595659 
L 337.502812 71.595659 
z
" clip-path="url(#p68320ace97)" style="fill: #e1812c; stroke: #ffffff; stroke-linejoin: miter"/>
   </g>
   <g id="patch_24">
    <path d="M 337.502812 71.595659 
L 337.502812 71.595659 
L 337.502812 71.595659 
L 337.502812 71.595659 
z
" clip-path="url(#p68320ace97)" style="fill: #3274a1; stroke: #ffffff; stroke-linejoin: miter"/>
   </g>
   <g id="line2d_10">
    <path clip-path="url(#p68320ace97)" style="fill: none; stroke: #424242; stroke-width: 2.25; stroke-linecap: round"/>
   </g>
   <g id="line2d_11">
    <path clip-path="url(#p68320ace97)" style="fill: none; stroke: #424242; stroke-width: 2.25; stroke-linecap: round"/>
   </g>
   <g id="line2d_12">
    <path clip-path="url(#p68320ace97)" style="fill: none; stroke: #424242; stroke-width: 2.25; stroke-linecap: round"/>
   </g>
   <g id="line2d_13">
    <path clip-path="url(#p68320ace97)" style="fill: none; stroke: #424242; stroke-width: 2.25; stroke-linecap: round"/>
   </g>
   <g id="line2d_14">
    <path clip-path="url(#p68320ace97)" style="fill: none; stroke: #424242; stroke-width: 2.25; stroke-linecap: round"/>
   </g>
   <g id="line2d_15">
    <path clip-path="url(#p68320ace97)" style="fill: none; stroke: #424242; stroke-width: 2.25; stroke-linecap: round"/>
   </g>
   <g id="line2d_16">
    <path clip-path="url(#p68320ace97)" style="fill: none; stroke: #424242; stroke-width: 2.25; stroke-linecap: round"/>
   </g>
   <g id="line2d_17">
    <path clip-path="url(#p68320ace97)" style="fill: none; stroke: #424242; stroke-width: 2.25; stroke-linecap: round"/>
   </g>
   <g id="line2d_18">
    <path clip-path="url(#p68320ace97)" style="fill: none; stroke: #424242; stroke-width: 2.25; stroke-linecap: round"/>
   </g>
   <g id="line2d_19">
    <path clip-path="url(#p68320ace97)" style="fill: none; stroke: #424242; stroke-width: 2.25; stroke-linecap: round"/>
   </g>
   <g id="line2d_20">
    <path clip-path="url(#p68320ace97)" style="fill: none; stroke: #424242; stroke-width: 2.25; stroke-linecap: round"/>
   </g>
   <g id="line2d_21">
    <path clip-path="url(#p68320ace97)" style="fill: none; stroke: #424242; stroke-width: 2.25; stroke-linecap: round"/>
   </g>
   <g id="line2d_22">
    <path clip-path="url(#p68320ace97)" style="fill: none; stroke: #424242; stroke-width: 2.25; stroke-linecap: round"/>
   </g>
   <g id="line2d_23">
    <path clip-path="url(#p68320ace97)" style="fill: none; stroke: #424242; stroke-width: 2.25; stroke-linecap: round"/>
   </g>
   <g id="line2d_24">
    <path clip-path="url(#p68320ace97)" style="fill: none; stroke: #424242; stroke-width: 2.25; stroke-linecap: round"/>
   </g>
   <g id="line2d_25">
    <path clip-path="url(#p68320ace97)" style="fill: none; stroke: #424242; stroke-width: 2.25; stroke-linecap: round"/>
   </g>
   <g id="line2d_26">
    <path clip-path="url(#p68320ace97)" style="fill: none; stroke: #424242; stroke-width: 2.25; stroke-linecap: round"/>
   </g>
   <g id="line2d_27">
    <path clip-path="url(#p68320ace97)" style="fill: none; stroke: #424242; stroke-width: 2.25; stroke-linecap: round"/>
   </g>
   <g id="line2d_28">
    <path clip-path="url(#p68320ace97)" style="fill: none; stroke: #424242; stroke-width: 2.25; stroke-linecap: round"/>
   </g>
   <g id="line2d_29">
    <path clip-path="url(#p68320ace97)" style="fill: none; stroke: #424242; stroke-width: 2.25; stroke-linecap: round"/>
   </g>
   <g id="line2d_30">
    <path d="M 729.975254 526.297187 
L 729.975254 47.664 
" clip-path="url(#p68320ace97)" style="fill: none; stroke-dasharray: 3.7,1.6; stroke-dashoffset: 0; stroke: #000000"/>
   </g>
   <g id="patch_25">
    <path d="M 337.502812 526.297187 
L 337.502812 47.664 
" style="fill: none; stroke: #cccccc; stroke-width: 1.25; stroke-linejoin: miter; stroke-linecap: square"/>
   </g>
   <g id="patch_26">
    <path d="M 995.04 526.297187 
L 995.04 47.664 
" style="fill: none; stroke: #cccccc; stroke-width: 1.25; stroke-linejoin: miter; stroke-linecap: square"/>
   </g>
   <g id="patch_27">
    <path d="M 337.502812 526.297187 
L 995.04 526.297187 
" style="fill: none; stroke: #cccccc; stroke-width: 1.25; stroke-linejoin: miter; stroke-linecap: square"/>
   </g>
   <g id="patch_28">
    <path d="M 337.502812 47.664 
L 995.04 47.664 
" style="fill: none; stroke: #cccccc; stroke-width: 1.25; stroke-linejoin: miter; stroke-linecap: square"/>
   </g>
   <g id="text_22">
    <!-- Mean: 5.29 -->
    <g transform="translate(737.57291 71.595659) rotate(-90) scale(0.1 -0.1)">
     <defs>
      <path id="DejaVuSans-1d" d="M 750 794 
L 1409 794 
L 1409 0 
L 750 0 
L 750 794 
z
M 750 3309 
L 1409 3309 
L 1409 2516 
L 750 2516 
L 750 3309 
z
" transform="scale(0.015625)"/>
      <path id="DejaVuSans-1c" d="M 703 97 
L 703 672 
Q 941 559 1184 500 
Q 1428 441 1663 441 
Q 2288 441 2617 861 
Q 2947 1281 2994 2138 
Q 2813 1869 2534 1725 
Q 2256 1581 1919 1581 
Q 1219 1581 811 2004 
Q 403 2428 403 3163 
Q 403 3881 828 4315 
Q 1253 4750 1959 4750 
Q 2769 4750 3195 4129 
Q 3622 3509 3622 2328 
Q 3622 1225 3098 567 
Q 2575 -91 1691 -91 
Q 1453 -91 1209 -44 
Q 966 3 703 97 
z
M 1959 2075 
Q 2384 2075 2632 2365 
Q 2881 2656 2881 3163 
Q 2881 3666 2632 3958 
Q 2384 4250 1959 4250 
Q 1534 4250 1286 3958 
Q 1038 3666 1038 3163 
Q 1038 2656 1286 2365 
Q 1534 2075 1959 2075 
z
" transform="scale(0.015625)"/>
     </defs>
     <use xlink:href="#DejaVuSans-30"/>
     <use xlink:href="#DejaVuSans-48" transform="translate(86.28125 0)"/>
     <use xlink:href="#DejaVuSans-44" transform="translate(147.8125 0)"/>
     <use xlink:href="#DejaVuSans-51" transform="translate(209.09375 0)"/>
     <use xlink:href="#DejaVuSans-1d" transform="translate(272.46875 0)"/>
     <use xlink:href="#DejaVuSans-3" transform="translate(306.15625 0)"/>
     <use xlink:href="#DejaVuSans-18" transform="translate(337.9375 0)"/>
     <use xlink:href="#DejaVuSans-11" transform="translate(401.5625 0)"/>
     <use xlink:href="#DejaVuSans-15" transform="translate(433.34375 0)"/>
     <use xlink:href="#DejaVuSans-1c" transform="translate(496.96875 0)"/>
    </g>
   </g>
   <g id="text_23">
    <!-- OASIS: Top Causes of Death by County -->
    <g style="fill: #262626" transform="translate(550.303594 41.664) scale(0.12 -0.12)">
     <defs>
      <path id="DejaVuSans-2c" d="M 628 4666 
L 1259 4666 
L 1259 0 
L 628 0 
L 628 4666 
z
" transform="scale(0.015625)"/>
      <path id="DejaVuSans-37" d="M -19 4666 
L 3928 4666 
L 3928 4134 
L 2272 4134 
L 2272 0 
L 1638 0 
L 1638 4134 
L -19 4134 
L -19 4666 
z
" transform="scale(0.015625)"/>
     </defs>
     <use xlink:href="#DejaVuSans-32"/>
     <use xlink:href="#DejaVuSans-24" transform="translate(76.96875 0)"/>
     <use xlink:href="#DejaVuSans-36" transform="translate(145.375 0)"/>
     <use xlink:href="#DejaVuSans-2c" transform="translate(208.859375 0)"/>
     <use xlink:href="#DejaVuSans-36" transform="translate(238.359375 0)"/>
     <use xlink:href="#DejaVuSans-1d" transform="translate(301.84375 0)"/>
     <use xlink:href="#DejaVuSans-3" transform="translate(335.53125 0)"/>
     <use xlink:href="#DejaVuSans-37" transform="translate(367.3125 0)"/>
     <use xlink:href="#DejaVuSans-52" transform="translate(411.40625 0)"/>
     <use xlink:href="#DejaVuSans-53" transform="translate(472.59375 0)"/>
     <use xlink:href="#DejaVuSans-3" transform="translate(536.078125 0)"/>
     <use xlink:href="#DejaVuSans-26" transform="translate(567.859375 0)"/>
     <use xlink:href="#DejaVuSans-44" transform="translate(637.6875 0)"/>
     <use xlink:href="#DejaVuSans-58" transform="translate(698.96875 0)"/>
     <use xlink:href="#DejaVuSans-56" transform="translate(762.34375 0)"/>
     <use xlink:href="#DejaVuSans-48" transform="translate(814.4375 0)"/>
     <use xlink:href="#DejaVuSans-56" transform="translate(875.96875 0)"/>
     <use xlink:href="#DejaVuSans-3" transform="translate(928.0625 0)"/>
     <use xlink:href="#DejaVuSans-52" transform="translate(959.84375 0)"/>
     <use xlink:href="#DejaVuSans-49" transform="translate(1021.03125 0)"/>
     <use xlink:href="#DejaVuSans-3" transform="translate(1056.234375 0)"/>
     <use xlink:href="#DejaVuSans-27" transform="translate(1088.015625 0)"/>
     <use xlink:href="#DejaVuSans-48" transform="translate(1165.015625 0)"/>
     <use xlink:href="#DejaVuSans-44" transform="translate(1226.546875 0)"/>
     <use xlink:href="#DejaVuSans-57" transform="translate(1287.828125 0)"/>
     <use xlink:href="#DejaVuSans-4b" transform="translate(1327.03125 0)"/>
     <use xlink:href="#DejaVuSans-3" transform="translate(1390.40625 0)"/>
     <use xlink:href="#DejaVuSans-45" transform="translate(1422.1875 0)"/>
     <use xlink:href="#DejaVuSans-5c" transform="translate(1485.671875 0)"/>
     <use xlink:href="#DejaVuSans-3" transform="translate(1544.859375 0)"/>
     <use xlink:href="#DejaVuSans-26" transform="translate(1576.640625 0)"/>
     <use xlink:href="#DejaVuSans-52" transform="translate(1646.46875 0)"/>
     <use xlink:href="#DejaVuSans-58" transform="translate(1707.65625 0)"/>
     <use xlink:href="#DejaVuSans-51" transform="translate(1771.03125 0)"/>
     <use xlink:href="#DejaVuSans-57" transform="translate(1834.40625 0)"/>
     <use xlink:href="#DejaVuSans-5c" transform="translate(1873.609375 0)"/>
    </g>
   </g>
   <g id="legend_1">
    <g id="patch_29">
     <path d="M 913.100312 106.966656 
L 987.34 106.966656 
Q 989.54 106.966656 989.54 104.766656 
L 989.54 55.364 
Q 989.54 53.164 987.34 53.164 
L 913.100312 53.164 
Q 910.900312 53.164 910.900312 55.364 
L 910.900312 104.766656 
Q 910.900312 106.966656 913.100312 106.966656 
z
" style="fill: #ffffff; opacity: 0.8; stroke: #cccccc; stroke-linejoin: miter"/>
    </g>
    <g id="text_24">
     <!-- Geography -->
     <g style="fill: #262626" transform="translate(917.092656 66.682125) scale(0.12 -0.12)">
      <defs>
       <path id="DejaVuSans-2a" d="M 3809 666 
L 3809 1919 
L 2778 1919 
L 2778 2438 
L 4434 2438 
L 4434 434 
Q 4069 175 3628 42 
Q 3188 -91 2688 -91 
Q 1594 -91 976 548 
Q 359 1188 359 2328 
Q 359 3472 976 4111 
Q 1594 4750 2688 4750 
Q 3144 4750 3555 4637 
Q 3966 4525 4313 4306 
L 4313 3634 
Q 3963 3931 3569 4081 
Q 3175 4231 2741 4231 
Q 1884 4231 1454 3753 
Q 1025 3275 1025 2328 
Q 1025 1384 1454 906 
Q 1884 428 2741 428 
Q 3075 428 3337 486 
Q 3600 544 3809 666 
z
" transform="scale(0.015625)"/>
      </defs>
      <use xlink:href="#DejaVuSans-2a"/>
      <use xlink:href="#DejaVuSans-48" transform="translate(77.484375 0)"/>
      <use xlink:href="#DejaVuSans-52" transform="translate(139.015625 0)"/>
      <use xlink:href="#DejaVuSans-4a" transform="translate(200.203125 0)"/>
      <use xlink:href="#DejaVuSans-55" transform="translate(263.6875 0)"/>
      <use xlink:href="#DejaVuSans-44" transform="translate(304.796875 0)"/>
      <use xlink:href="#DejaVuSans-53" transform="translate(366.078125 0)"/>
      <use xlink:href="#DejaVuSans-4b" transform="translate(429.5625 0)"/>
      <use xlink:href="#DejaVuSans-5c" transform="translate(492.9375 0)"/>
     </g>
    </g>
    <g id="patch_30">
     <path d="M 915.300312 83.423219 
L 937.300312 83.423219 
L 937.300312 75.723219 
L 915.300312 75.723219 
z
" style="fill: #e1812c; stroke: #ffffff; stroke-linejoin: miter"/>
    </g>
    <g id="text_25">
     <!-- DeKalb -->
     <g style="fill: #262626" transform="translate(946.100312 83.423219) scale(0.11 -0.11)">
      <defs>
       <path id="DejaVuSans-2e" d="M 628 4666 
L 1259 4666 
L 1259 2694 
L 3353 4666 
L 4166 4666 
L 1850 2491 
L 4331 0 
L 3500 0 
L 1259 2247 
L 1259 0 
L 628 0 
L 628 4666 
z
" transform="scale(0.015625)"/>
      </defs>
      <use xlink:href="#DejaVuSans-27"/>
      <use xlink:href="#DejaVuSans-48" transform="translate(77 0)"/>
      <use xlink:href="#DejaVuSans-2e" transform="translate(138.53125 0)"/>
      <use xlink:href="#DejaVuSans-44" transform="translate(202.359375 0)"/>
      <use xlink:href="#DejaVuSans-4f" transform="translate(263.640625 0)"/>
      <use xlink:href="#DejaVuSans-45" transform="translate(291.421875 0)"/>
     </g>
    </g>
    <g id="patch_31">
     <path d="M 915.300312 99.924078 
L 937.300312 99.924078 
L 937.300312 92.224078 
L 915.300312 92.224078 
z
" style="fill: #3274a1; stroke: #ffffff; stroke-linejoin: miter"/>
    </g>
    <g id="text_26">
     <!-- Fulton -->
     <g style="fill: #262626" transform="translate(946.100312 99.924078) scale(0.11 -0.11)">
      <defs>
       <path id="DejaVuSans-29" d="M 628 4666 
L 3309 4666 
L 3309 4134 
L 1259 4134 
L 1259 2759 
L 3109 2759 
L 3109 2228 
L 1259 2228 
L 1259 0 
L 628 0 
L 628 4666 
z
" transform="scale(0.015625)"/>
      </defs>
      <use xlink:href="#DejaVuSans-29"/>
      <use xlink:href="#DejaVuSans-58" transform="translate(52.046875 0)"/>
      <use xlink:href="#DejaVuSans-4f" transform="translate(115.421875 0)"/>
      <use xlink:href="#DejaVuSans-57" transform="translate(143.203125 0)"/>
      <use xlink:href="#DejaVuSans-52" transform="translate(182.40625 0)"/>
      <use xlink:href="#DejaVuSans-51" transform="translate(243.59375 0)"/>
     </g>
    </g>
   </g>
  </g>
 </g>
 <defs>
  <clipPath id="p68320ace97">
   <rect x="337.502812" y="47.664" width="657.537188" height="478.633187"/>
  </clipPath>
 </defs>
</svg>
